<svg xmlns="http://www.w3.org/2000/svg" viewBox="0 0 81.6 48.59"><defs><style>.cls-1{fill:#1d272f;}</style></defs><title>Ресурс 1</title><g id="Слой_2" data-name="Слой 2"><g id="Слой_1-2" data-name="Слой 1"><path class="cls-1" d="M36,27.83a.1.1,0,0,1-.2,0,.1.1,0,0,1,.2,0Z"/><path class="cls-1" d="M47.39,38.86a1.75,1.75,0,0,1-.28.06s0,0,0,0a10.54,10.54,0,0,0-2.11.36,3.24,3.24,0,0,1-.85.11c-1.22,0-2.2-.63-3.69-.62h0c-1.49,0-2.46.62-3.68.62a3.22,3.22,0,0,1-.85-.11,10.91,10.91,0,0,0-2.13-.36,1.68,1.68,0,0,0,.09.19c0,.08.13.1.26.11a9.5,9.5,0,0,1,1.15.24,7.41,7.41,0,0,0,1.2.12,7.33,7.33,0,0,0,.89,0c.23,0,.48,0,.68-.07l.52-.11c.37-.06.73-.15,1.09-.23A7.61,7.61,0,0,1,40.82,39a3.77,3.77,0,0,1,.65,0,10.48,10.48,0,0,1,1.06.16l.47.13a6.14,6.14,0,0,0,1.82.13,12.46,12.46,0,0,0,2-.32,8.54,8.54,0,0,1,1-.22h-.48Zm2.46-2.6s0-.09-.05-.1-.16.16-.18.18a2.36,2.36,0,0,1-.68.49s-.06.05-.07,0,0-.13,0-.16a1.51,1.51,0,0,0,0-.18c0-.05,0-.24,0-.25s-.11.12-.15.14l-.17.09s-.16.09-.18.07,0-.1,0-.15a.73.73,0,0,0-.05-.37.53.53,0,0,0-.15-.22s-.08,0-.1,0,0,.1,0,.11a1.07,1.07,0,0,1-.29.32c-.07.06,0-.1,0-.16a.84.84,0,0,0-.39-.69c-.1-.09-.06,0-.08.07a.94.94,0,0,1-.24.46l-.06.05a1,1,0,0,1,0-.19.76.76,0,0,0,0-.19s-.1-.16-.15-.14a.83.83,0,0,0,0,.1s-.09.11-.1.1,0-.09,0-.12a.88.88,0,0,0-.38-.61s-.17-.18-.25-.15,0,.12,0,.18a.61.61,0,0,1,0,.13s0,.14-.06.09a.28.28,0,0,0-.2-.12.72.72,0,0,0-.2,0s.07-.17.07-.19a.75.75,0,0,0-.24-.62,1,1,0,0,0-.19-.13s-.07.13-.08.15a1.78,1.78,0,0,1-.16.29s-.09.13-.12.11a1.59,1.59,0,0,1,0-.19.92.92,0,0,0-.79-.62.39.39,0,0,0-.16,0S44,34,44,34a.45.45,0,0,1-.23.48s-.14.07-.19,0,0-.08,0-.1a1,1,0,0,0-.82-.34s-.11,0-.11,0,.11.05.12.06c.16.14-.12.38-.19.42a3.34,3.34,0,0,1-.78.25,6,6,0,0,0-2.15.92,7,7,0,0,0-1.43,1.49,1.29,1.29,0,0,1-1.35.71.94.94,0,0,1-.83-.83A2.65,2.65,0,0,1,36.26,36c.31-.88.66-1.71,1-2.54A26.32,26.32,0,0,0,38,31c.57-2.21-.05-3.08-.4-3.43a1.24,1.24,0,0,0-.82-.36,1.57,1.57,0,0,0-1.46.73s-.11.14-.1.17.13.07.17.1,0,.23,0,.39a.59.59,0,0,0,.11.19s-.09-.09-.1-.11,0-.28-.07-.38-.11-.15-.17-.13-.06.09-.08.12a2,2,0,0,1-.52.39c-.29.16-.61.27-.67.57,0,0,0,.17,0,.19s.09,0,.17-.07l.22-.07a9,9,0,0,0,.91-.32,1.53,1.53,0,0,1,.57-.17,2.68,2.68,0,0,0,.56-.07,3.58,3.58,0,0,0,.39-.14c.17,0,.28.14.31.24a1.23,1.23,0,0,1,.05.35,2.75,2.75,0,0,1-.06.56c0,.18-.06.36-.1.53a17.68,17.68,0,0,1-2.25,5.2,5.93,5.93,0,0,0-1.08,2.18,2.37,2.37,0,0,0,.06,1.06A10.65,10.65,0,0,1,36,39a3,3,0,0,0,.77.1c1.1,0,2.1-.62,3.68-.63h0c1.58,0,2.58.63,3.68.63a3,3,0,0,0,.77-.1,11,11,0,0,1,2-.35.58.58,0,0,0-.23-.08,1.25,1.25,0,0,0-.38.07c-.16,0-.31,0-.51,0l.27-.13a1.89,1.89,0,0,1,.25-.14,1.65,1.65,0,0,1,1,.1.72.72,0,0,1,.11.13h.2a6.51,6.51,0,0,1,.91.06h0a2.31,2.31,0,0,0,.38-.27,3.07,3.07,0,0,0,.39-.38,2.47,2.47,0,0,0,.27-.47c.06-.11.16-.19.22-.31a2,2,0,0,0,.15-.37A1.22,1.22,0,0,0,49.85,36.26ZM34.52,29.13s-.15-.16-.18-.19l-.06,0s.2-.13.26-.13.28.18.28.23A1,1,0,0,1,34.52,29.13ZM36,28c-.33.05-.44-.33-.11-.38S36.23,28,36,28Zm10.52,8.05a.26.26,0,0,1,.16,0s0,.2,0,.22-.12-.07-.15-.07a.81.81,0,0,0-.39.16l-.11.07s.09-.15.11-.17A.52.52,0,0,1,46.48,36.06Zm-.41-.35a1.64,1.64,0,0,0,.24-.31c0,.15-.09.45-.25.49h-.15S46.07,35.72,46.07,35.72ZM46,36a1.81,1.81,0,0,0-.24.23s-.1.15-.12.16h-.23s.11-.12.12-.13a1.41,1.41,0,0,1,.13-.12A.8.8,0,0,1,46,36Zm-.44,1c-.06,0,0-.08-.06-.14a.4.4,0,0,0-.25-.11s-.17,0-.16,0,.13,0,.15,0a.65.65,0,0,1,.36.05C45.72,36.81,45.68,36.92,45.57,37Zm-.13-1.41c.11-.08.24-.23.33-.3s0,0,0,0a1.12,1.12,0,0,1-.16.25c0,.05-.11.21-.2.21a.13.13,0,0,1-.08-.08S45.4,35.64,45.44,35.61ZM45,35a1.18,1.18,0,0,0,.22-.17s0,0,0-.07a1.5,1.5,0,0,1-.15.32c-.05.07-.17.18-.22.18s-.15-.09-.15-.11S45,35,45,35Zm-.37,1.84a.37.37,0,0,0-.23-.08l-.07,0s-.07-.1-.07-.1.52,0,.57.08-.12.24-.19.29l0,0C44.63,37,44.76,36.88,44.68,36.79Zm-.09-1s-.1,0,0,0a.5.5,0,0,1,.24,0c.17.13,0,.5-.08.59s0-.09,0-.15A.6.6,0,0,0,44.59,35.78Zm.22-.28s.11.21,0,.12a.55.55,0,0,0-.5-.1.56.56,0,0,1-.17-.07s.23-.05.27-.05A.4.4,0,0,1,44.82,35.5Zm-.8.9s0,0,0-.05a.27.27,0,0,0-.24-.33h-.1s0-.1,0-.11a.25.25,0,0,1,.1,0c.37,0,.39.19.28.41a.22.22,0,0,1,0,.06S44,36.43,44,36.41Zm.09-.75a3.29,3.29,0,0,0-.53-.2c-.06,0,0,0,.08,0a1.09,1.09,0,0,1,.31,0,.52.52,0,0,1,.25.19s0,.11,0,.12Zm-.92,0a3.17,3.17,0,0,1-.38-.09c-.1,0,0-.05.07-.05a.78.78,0,0,1,.62.19.56.56,0,0,1,.08.15l-.1-.06A1.16,1.16,0,0,0,43.19,35.64Zm.26.63c0,.08,0,.22-.08.1a.28.28,0,0,0-.26-.17c-.11,0-.2,0-.25,0s-.09-.07-.08-.09a1,1,0,0,1,.37-.07C43.32,36.08,43.45,36.13,43.45,36.28Zm.7-1.51a.78.78,0,0,0,.25-.42s0-.08,0-.11a.71.71,0,0,1,.05.32c0,.12-.16.3-.24.32s-.16,0-.18,0S44.14,34.77,44.15,34.77Zm-.13.4c-.18.05-.36.09-.56.13a2,2,0,0,1-.75.09A3.92,3.92,0,0,1,44,35.17Zm-1-.61a.48.48,0,0,0,.06-.19s0,0,0-.06.11.11.11.17,0,.17-.06.19a.65.65,0,0,1-.18,0S43,34.59,43,34.57Zm-.77.43a3.51,3.51,0,0,1,1.6-.1c-.17,0-.36.13-.57.08,0,0,0,0-.08,0s-.33.06-.49.07h-.5S42.46,34.91,42.22,35Zm-.81.21A1,1,0,0,1,41.7,35c.12,0-.21.15,0,.16.06,0,.28.06.39.07s-.08,0-.15,0h-.43C41.38,35.29,41.29,35.29,41.41,35.2Zm-1,.35a1.13,1.13,0,0,1,.34-.24s-.13.12-.1.17.33,0,.42,0,.12,0,.15,0-.08.06-.09.07a3.75,3.75,0,0,1-.48.1,1.1,1.1,0,0,1-.3,0S40.41,35.55,40.41,35.55Zm-.7.43a.43.43,0,0,1,.07-.13.66.66,0,0,1,.21-.13s-.24.3,0,.27a3.82,3.82,0,0,0,.44-.16c.07,0,.2-.07.11,0a2.5,2.5,0,0,1-.65.27l-.2,0S39.7,36,39.71,36Zm-.58.52a.86.86,0,0,1,.3-.36s-.05.11-.07.14-.11.19,0,.21a1.63,1.63,0,0,0,.38-.14l.43-.17a1.83,1.83,0,0,1-.73.36s-.26.1-.31.07A.64.64,0,0,1,39.13,36.51ZM38.7,37a1.09,1.09,0,0,1,.18-.33c0,.07-.09.26,0,.3s.13,0,.18,0l.47-.18c.14-.06-.08.09-.12.12a5.37,5.37,0,0,1-.56.25s-.11.05-.13,0A.63.63,0,0,1,38.7,37Zm-.11.5a1.27,1.27,0,0,1-.22.1c-.09,0,0-.26,0-.28s0,.1.07.11.22-.1.31-.14.2-.12.24-.12-.19.21-.23.23Zm1,.57-.11,0s0-.12-.06-.14-.38-.13-.57-.06a.65.65,0,0,1,.68,0S39.58,38,39.54,38Zm.28-.45s0-.08-.05-.08c-.2-.15-.53.06-.67.11s-.16.06-.13,0a1.55,1.55,0,0,1,.7-.79c.08,0,.19,0,.27-.07s.11-.14.15-.19a.9.9,0,0,1,.37-.24c.09,0,.08,0,.12-.07a1.11,1.11,0,0,1,.53-.35c.11,0,.25,0,.35,0s.13-.13.18-.16a1.33,1.33,0,0,1,.54-.15,1,1,0,0,1,.58.11s.17.13.15.18-.21-.09-.24-.1a1.56,1.56,0,0,0-.72,0c-.09,0-.22.07-.23.1s.24.2.23.21-.24-.05-.3-.06a1.26,1.26,0,0,0-.62.1s-.2.1-.2.13a2.24,2.24,0,0,0,.27.11l.09,0s-.19,0-.25,0a1.22,1.22,0,0,0-.64.23.68.68,0,0,0-.1.11s0,0,.09,0a.6.6,0,0,1,.18.1s.05.07,0,.09-.11,0-.13,0a1.28,1.28,0,0,0-.79.2c-.07,0-.34.19-.18.23s.12,0,.21,0,.23.07.24.13S39.84,37.56,39.82,37.56Zm2.42-1.27c-.15,0-.17.09-.32,0l-.09,0s.22-.13.26-.14h.13c.33,0,.6.17.44.39,0,0-.07.1-.08.1a.67.67,0,0,1,0-.12C42.61,36.4,42.48,36.29,42.24,36.29Zm-.7.2c-.17,0-.22.12-.39.11s-.16,0-.1,0a.79.79,0,0,1,.46-.19c.32,0,.52.13.41.35,0,0,0,.1-.06.1s0-.08,0-.07C41.88,36.6,41.75,36.48,41.54,36.49Zm-.28.56s0,0,0,0a.28.28,0,0,0-.17-.2c-.14,0-.23,0-.35,0l-.17-.08s.22-.07.25-.08C41.06,36.67,41.38,36.83,41.26,37.06Zm-1.4.19s.25-.07.33-.08a.51.51,0,0,1,.38.12s.07.17,0,.1a.55.55,0,0,0-.41-.1c-.11,0-.13.07-.22,0Zm.87.72-.24-.06a1.86,1.86,0,0,0-.55.1c-.09,0,.1-.12.11-.13a.68.68,0,0,1,.27-.09.47.47,0,0,1,.38.1S40.74,38,40.73,38Zm.68-.33s-.16-.11-.2-.11c-.24,0-.47.15-.57.16l-.14,0,.12-.13a1.16,1.16,0,0,1,.6-.16c.11,0,.28,0,.27.13S41.43,37.62,41.41,37.63Zm.75-.34c-.06.07,0,0-.06,0s-.28-.13-.41-.09a1.48,1.48,0,0,1-.24.11l-.14,0,.05,0a1.23,1.23,0,0,1,.57-.21C42.18,37,42.29,37.12,42.15,37.29Zm.67-.1s0-.11,0-.09a.29.29,0,0,0-.25-.12c-.07,0-.16,0-.19,0s-.11-.08-.11-.09l.15,0,.16,0c.2,0,.37,0,.34.23S42.85,37.19,42.83,37.19Zm.55,0s0-.12,0-.16-.17-.1-.28-.09-.06,0-.11,0l-.12-.06s.16-.06.18-.06C43.48,36.69,43.64,37,43.38,37.15Zm.11-.43s.14-.06.17-.07h.15c.18,0,.37,0,.42.12s0,.1-.08.14-.07.06-.09,0a.73.73,0,0,1,0-.09c-.06-.13-.32-.07-.47-.1Zm3.83.87a.66.66,0,0,1-.24.14,4.15,4.15,0,0,1-.58.05c-.13,0-.07.05,0,.07h.42s-.12.1-.13.1a4.9,4.9,0,0,1-.69,0c-.19,0,.08.07.15.08s.34,0,.24,0a1.08,1.08,0,0,1-.4.07,2.25,2.25,0,0,0-.71,0,1.89,1.89,0,0,0-.28.14,1.31,1.31,0,0,1-.78,0,1.09,1.09,0,0,0-.52-.09,5.11,5.11,0,0,0,.8-.3,1.41,1.41,0,0,1,.6-.14s.09,0,.15,0,.05,0,.08-.05a2,2,0,0,1,.83-.21,5,5,0,0,0,1,0S47.33,37.56,47.32,37.59Zm-.2-.43a2.42,2.42,0,0,1-.56.17,1.2,1.2,0,0,1-.31.06s.1-.11.12-.12.3-.3.4-.41.11-.06.09-.1-.19,0-.26,0a4,4,0,0,0-.69.19c-.06,0,0-.06,0-.08a2,2,0,0,1,.45-.17l.19,0a1.83,1.83,0,0,1,.46,0s0,0,0,.07a1.57,1.57,0,0,1-.28.33s-.13.09-.12.12.14,0,.19,0a3.56,3.56,0,0,0,.52-.13C47.39,37,47.15,37.14,47.12,37.15Zm.3-.93a.76.76,0,0,1-.22.25h-.12s.11-.13.14-.16a3,3,0,0,1,.24-.28s0,0,0,0S47.43,36.2,47.42,36.22Zm1.15.68a.4.4,0,0,1-.17.26,2.53,2.53,0,0,1-.35.24l0,0a6.34,6.34,0,0,1,.57-.65C48.7,36.69,48.57,36.88,48.57,36.9Zm.87,0a3.34,3.34,0,0,1-.4.38c-.06.05,0,0,0-.07a1.78,1.78,0,0,0,.17-.27s0-.08,0-.09a.39.39,0,0,1,.22-.1A.41.41,0,0,1,49.43,36.9Z"/><path class="cls-1" d="M30.45,39.58c.74-.36,2.1-1.24,5.53-.33a3.52,3.52,0,0,0,1.75,0,7.52,7.52,0,0,1,4.3-.27c2,.5,2.08.52,3.61.13a7.12,7.12,0,0,1,4.72.48A8,8,0,0,1,49.51,41c-.06.07-1.39-1-4.67-.16a3.86,3.86,0,0,1-2.39-.13A6.17,6.17,0,0,0,39,40.6a5.41,5.41,0,0,1-3,.25,8.81,8.81,0,0,0-3-.28,6.49,6.49,0,0,0-1.66.45s-.46-.74-.51-.83Z"/><path class="cls-1" d="M32.4,42.48c.07,0,1-.56,3.76,0a3,3,0,0,0,2.18,0A5.71,5.71,0,0,1,42,42.36a4.18,4.18,0,0,0,2.58.17,7.05,7.05,0,0,1,3.84-.08,22.2,22.2,0,0,1-8,5.91,25.29,25.29,0,0,1-7.63-5.42Z"/><path class="cls-1" d="M40.29,48.53c-4-2-11.89-6.27-11.88-16.89V29h.49v2.6c0,10.33,7.51,14.49,11.52,16.49,4-2,11.51-6.16,11.52-16.49V29.13h.5v2.52c0,10.61-7.87,14.91-11.88,16.89l-.13.06Z"/><path class="cls-1" d="M51.94,28.31v-.39h.5c0,.12,0,.19,0,.23a.82.82,0,0,1-.15,0A1.94,1.94,0,0,1,51.94,28.31Z"/><path class="cls-1" d="M28.4,29.73V24.82h24v.39c0,.52,0,1.43,0,2.2v1.85h-.5V25.21h-23v4.52Z"/><path class="cls-1" d="M28.48,28.15A.35.35,0,0,1,28.4,28v-.09h.5v.38s-.18-.09-.25-.09Z"/><path class="cls-1" d="M40.43,42.18h0c-1.3,0-2.12.57-3.16.57a2.68,2.68,0,0,1-.69-.09A9.88,9.88,0,0,0,34,42.29a4.91,4.91,0,0,0-1.61.24l-.07-.12A5.14,5.14,0,0,1,34,42.16a10.08,10.08,0,0,1,2.59.38,2.4,2.4,0,0,0,.64.08c1,0,1.8-.57,3.16-.57h0c1.36,0,2.24.58,3.21.57a2.44,2.44,0,0,0,.65-.08,10.1,10.1,0,0,1,2.6-.38,5.31,5.31,0,0,1,1.62.23l-.06.12a5.14,5.14,0,0,0-1.56-.22,9.9,9.9,0,0,0-2.54.37,2.71,2.71,0,0,1-.7.09C42.6,42.75,41.73,42.18,40.43,42.18Z"/><path class="cls-1" d="M31.29,41a5.22,5.22,0,0,1,2.42-.52,9.68,9.68,0,0,1,2.5.36,2.78,2.78,0,0,0,.74.1c1.05,0,2-.59,3.47-.59h0c1.48,0,2.42.6,3.47.59a2.8,2.8,0,0,0,.74-.1,9.68,9.68,0,0,1,2.5-.36,5.23,5.23,0,0,1,2.4.51l-.09.11a5.08,5.08,0,0,0-2.31-.49,9.44,9.44,0,0,0-2.45.35,3.06,3.06,0,0,1-.79.1c-1.13,0-2.06-.59-3.48-.59h0c-1.42,0-2.34.59-3.47.59a3,3,0,0,1-.79-.1,9.46,9.46,0,0,0-2.45-.35,5,5,0,0,0-2.33.5Z"/><path class="cls-1" d="M27.64,23.48Z"/><path class="cls-1" d="M23.74,17a.29.29,0,0,1,0-.06h0a.26.26,0,0,0,0,.06,0,0,0,0,1,0,0h0Z"/><path class="cls-1" d="M26.62,18.65h0a0,0,0,0,1,0,0h0a0,0,0,0,1,0,0h0Z"/><path class="cls-1" d="M26.35,47.1h.06a0,0,0,0,1,0,0h0Z"/><path class="cls-1" d="M18.25,48.19h0Z"/><path class="cls-1" d="M18.19,48.19h0Z"/><path class="cls-1" d="M29.14,8c-.31-.21-.91,0-1.24.07a18.73,18.73,0,0,0-5.82,2.74,2.2,2.2,0,0,0-.82,1.32c0,.11-.05.42-.07.37a2.58,2.58,0,0,0-.27-.5,4.85,4.85,0,0,0-.33-.49c-.26-.33-.57-.54-.82-.83a4,4,0,0,1-.48-1,3.66,3.66,0,0,1-.42-1.18c0-.08,0-.38,0-.41s.19.05.25.06a1,1,0,0,0,.41,0c.12,0,.23-.14.31-.14s.1.06.2.06c.5,0,.73-.55.76-.94,0-.15-.06-.29-.07-.44s0-.1,0-.13-.24-.22-.39-.31a10.08,10.08,0,0,1-.85-1c-.1-.1-.33-.22-.17-.36s.31-.05.23-.16-.17,0-.22,0,0-.1,0-.14a.84.84,0,0,0-.41-.45c-.1,0-.19,0-.27,0a1.05,1.05,0,0,1-.23-.25,7,7,0,0,1,0-.7,6.3,6.3,0,0,0,.34-1.81,1.47,1.47,0,0,0-.5-1,.4.4,0,0,0-.2,0h0a6.14,6.14,0,0,0-.27.57A4.65,4.65,0,0,1,16.66,3.1c-.06.05-.28.21-.34.18s0-.11,0-.15c-.1-.36-.08-.7-.2-1.06a4.73,4.73,0,0,0-1-1.32C15,.68,15,.59,14.95.55s-.39.13-.43.21a3.82,3.82,0,0,0-.27,1.68,2.79,2.79,0,0,0,.34,1.21c.06.1.28.36.29.47s-.05.11-.06.14a5.19,5.19,0,0,0,.07,1.83c.05.32.1.64.19,1A6,6,0,0,1,15.3,8c0,.16,0,.31,0,.46,0,.52.15.94.17,1.42a9.35,9.35,0,0,1-.11,1.34A23.91,23.91,0,0,0,15,13.82c0,.69.06,1.39.09,2a5.67,5.67,0,0,1,.06.9,7,7,0,0,1-.42,1.47c-.36,1-.6,1.91-.91,2.85-.16.48-.35.93-.53,1.39-.32.84-.56,1.92-.9,2.78A13.76,13.76,0,0,0,11.55,28c-.05.3-.13.59-.15.87s-.08.76-.12,1.15a15.4,15.4,0,0,0,0,2.33c0,.42.14.84.18,1.27.11,1.26.17,2.57.16,3.58,0,.36-.05.72,0,1.09,0,.07,0,.25,0,.34s0,.15,0,.21,0,.32,0,.48c0,.85.05,1.69,0,2.53,0,.39-.09.79-.16,1.19a6.09,6.09,0,0,1-.57,2c-.78,1.36-2.7,1.7-4.43,2a6.17,6.17,0,0,1-.85.07l-2.71.14a18,18,0,0,0-2.2.35c-.21,0-.65.08-.65.23s.48.44.7.49a4,4,0,0,0,1,.07c1.06,0,2.09.07,3,.08a20.71,20.71,0,0,0,5.75-.5c.18-.05.38-.2.5-.22s.33,0,.51,0c1.1-.1,2.09-.11,3.2-.12H15c.15,0,.21.16.32.21a1.94,1.94,0,0,0,.41.08,9.23,9.23,0,0,0,1.9,0,22.32,22.32,0,0,1,3.22.17c.91.07,1.63.1,2.54.15.25,0,.48.09.7.12a1.79,1.79,0,0,0,.63-.07,3.79,3.79,0,0,0,.66,0,.93.93,0,0,1,.17-.08,1.51,1.51,0,0,1,.48,0s.18.11.22.08-.15-.32-.21-.36-.2-.06-.1-.08a1.89,1.89,0,0,0,.23-.1c.17-.06.61.08.64,0s-.2-.24-.24-.27a5.39,5.39,0,0,0-.55-.15c-.17-.08,0-.08.13-.09s.43.07.46,0-.35-.23-.41-.24-.09,0-.12,0-.07-.08-.13-.11a3.88,3.88,0,0,0-.86-.37c-.35,0-.73,0-1.09,0a7.49,7.49,0,0,0-.79-.18,8,8,0,0,0-1.19.08c-.15,0-.32,0-.48,0-.39,0-.81-.07-1.22-.12A10.06,10.06,0,0,1,18.88,46s-.5-.17-.5-.22.22-.06.28-.06.21,0,.35,0c.41,0,.81-.08,1.24-.07l1.21,0c.91,0,2.09.2,3,.25a2.69,2.69,0,0,0,.61,0c.08,0,.18-.07.27-.08.39-.07,1,.21,1.33.13.17,0,.34-.16.46-.18s.42.1.47,0-.2-.21-.26-.23c-.24-.11,0,0,.2-.06s.09,0,.19,0,.62.09.65,0,0,0,0-.06a1.52,1.52,0,0,0-.44-.28c-.05,0-.13,0-.16,0s-.07-.14-.07-.14.19.09.22,0-.11-.13-.19-.17-.33-.18-.52-.27a3.36,3.36,0,0,0-.76-.25,2.8,2.8,0,0,0-.69.07,2.44,2.44,0,0,1-.65-.06,9.13,9.13,0,0,0-1.37-.16,9.91,9.91,0,0,1-3.5-.75c-.49-.23-.49-1-.41-1.54.12-.76.21-1.68.28-2.47a5.53,5.53,0,0,1,.09-.84,7.52,7.52,0,0,0,.11-.78c0-.26.08-.47.12-.72a16,16,0,0,1,.45-2.93c.15-.41.4-.81.56-1.23l.09-.22.07-.21a8,8,0,0,0,.23-.77,4.93,4.93,0,0,0,.13-.76,11.31,11.31,0,0,0-.15-3.48,9.16,9.16,0,0,0-.58-1.74c-.06-.12-.2-.22-.22-.33a2.44,2.44,0,0,1,.06-.53c.17-1.71,0-3.34.3-5a6.14,6.14,0,0,1,.12-.82,1.44,1.44,0,0,1,.22,0c.32,0,.74,0,1.11,0a3.15,3.15,0,0,1,1.53.2c.23.11.35.4.63.5s.2.12.31.26a.62.62,0,0,0,1.05-.06c.11-.28,0-.49-.06-.71,0-.05,0-.1,0-.14,0-.25-.45-.37-.56-.54,0,0-.07-.17-.06-.18h.19c.24,0,.32.17.37.36s0,.2.08.2.12-.15.13-.18c.07-.19,0-.4,0-.5s.06-.07.06-.19a.55.55,0,0,0-.15-.35c-.09-.08-.26,0-.34-.16s0-.2-.12-.28a.72.72,0,0,0-.35-.15s-.19,0-.22,0,0-.09,0-.1A.53.53,0,0,0,25,17s-.11,0-.16,0-.19-.28-.23-.37-.13-.28-.2-.41-.13-.11-.1-.18a2.9,2.9,0,0,1,.27-.17,2.47,2.47,0,0,1,.29-.16c.08,0,.79-.34.78-.45s-.47.05-.54.08a3.3,3.3,0,0,0-.63.3s-.25.19-.31.17-.08-.19-.09-.22L24,15.33a2.07,2.07,0,0,1-.17-.47l.2-.07a5.36,5.36,0,0,0,.85-.35c.06,0,.23-.29.27-.29s.11.18.11.18c.23.26.56,0,.72-.15s.22-.26.27-.26.12.14.19.17.13,0,.15,0-.09.25,0,.3.38-.25.41-.32,0-.14,0-.15a1.33,1.33,0,0,0,.22.21c0,.08-.13.23-.07.28s.24-.1.28-.14.2-.28.25-.25,0,.25,0,.26-.14.19-.12.22.49-.18.55-.21c.32-.17.71-.39.72-.79a.35.35,0,0,0-.18-.34.54.54,0,0,0-.28,0s0-.21,0-.25a.38.38,0,0,0-.41-.35c-.08,0-.11.1-.16.08s-.12-.26-.17-.31a.5.5,0,0,0-.7,0s-.12.2-.15.2l-.12-.09c-.27-.19-.54,0-.63.3,0,.08,0,.24,0,.32s-.18.08-.23.12-.1.15-.16.21-.2.11-.27.19a2.41,2.41,0,0,1-.2.21c-.11.1-.18.25-.26.31a2.21,2.21,0,0,1-.5.26c-.06,0-.48.24-.56.2s-.06-.19-.08-.26c-.07-.26-.19-.54-.24-.77a1.8,1.8,0,0,1,.65-1.77,20.71,20.71,0,0,1,3.45-2.21A8.69,8.69,0,0,0,28.77,9C29,8.84,29.58,8.26,29.14,8Zm-1.33,5c0-.05.06,0,.09-.06a.21.21,0,0,1,.09,0c.09,0,.21.42.06.3S27.75,13.11,27.8,12.95Zm-.8-.29a.46.46,0,0,1,.27-.13c.13,0,.23.11.29.27s.11.44,0,.22a.37.37,0,0,0-.44-.24,2,2,0,0,1-.2.11S27,12.71,27,12.65Zm-.72.1a.27.27,0,0,1,.11-.07.3.3,0,0,1,.13,0s.26.31.23.34-.15-.07-.12-.06a.64.64,0,0,0-.28,0s-.18.17-.2.15S26.25,12.78,26.28,12.75ZM22,16.88a4.37,4.37,0,0,0,.19-1.35s0-.09,0-.1.06.13,0,.1c.07.14.19.28.29.47a2.13,2.13,0,0,1,.27.49c0,.12-.32.27-.4.33l-.35.28C21.92,17.17,22,17,22,16.88Zm0,.47a6.52,6.52,0,0,0,.85-.54s0,0,0,0,.43.58.5.71-.07.07-.21.07a5.87,5.87,0,0,1-1.35-.07C21.76,17.48,22,17.38,22,17.34ZM20.56,6.91s0,0,0,.07a1,1,0,0,1-.42.81c-.23.09-.06,0,0-.11a1,1,0,0,0,.35-.6S20.52,6.94,20.56,6.91ZM18.62,4.25c.22-.1.6.29.33.36v0h0c0,.11.11.16.12.27S19,5,19,5s.21.19.29.26a3.27,3.27,0,0,1,.47.56s.18.26.06.14l-.37-.34a3.32,3.32,0,0,1-.47-.6c-.1-.14-.23-.23-.28-.31S18.55,4.29,18.62,4.25Zm0,.84a3.94,3.94,0,0,1,.53.51c.18.18.4.31.51.43s0,.05.11.08.06.08.11.11.35.1.4.16.08.24,0,.28a3,3,0,0,1-.31-.15h-.07c-.13,0-.18-.18-.26-.2a.46.46,0,0,0-.27,0c-.14.11,0,.37.1.42.24.14.44,0,.5.34a.75.75,0,0,0,.12.3c.06.05-.36.34-.46.39a1.05,1.05,0,0,1-.62,0c-.16,0-.33-.27-.54-.16s0,.18-.13.22-.47,0-.58,0a5.19,5.19,0,0,1-1-.08A1.73,1.73,0,0,1,16,7.26a1.88,1.88,0,0,1-.28-.57A6.43,6.43,0,0,1,15.6,6a1.68,1.68,0,0,1,.21.33,1.66,1.66,0,0,0,.21.36,4.29,4.29,0,0,0,.8.71,2.44,2.44,0,0,0,1.48.18c.11,0,.17,0,.08-.12s-.39-.24-.47-.37.18,0,.33,0,.54.41.79.51c0,0,.41.07.42,0s-.14-.05-.2-.08A1.44,1.44,0,0,1,19,7.37c-.05-.06-.3-.35-.11-.28S19,7,19.17,7s.28.15.28,0S19.34,7,19.3,7A1.54,1.54,0,0,1,19,6.66c0-.06-.12-.26-.07-.34s.18,0,.23-.09a.53.53,0,0,0,0-.32c-.1-.43-.81-.63-1-.92,0,0-.13-.21-.09-.24s0,0,0,0C18.31,4.74,18.42,5,18.59,5.09Zm-2-.27s.11-.12.15-.14l.33-.08c.09,0,.25,0,.29.07s-.18,0-.22,0S16.63,4.87,16.58,4.82ZM17,5s-.05.07-.12.07-.11,0-.11-.07.05-.08.11-.08S17,5,17,5Zm-.39,0s.06,0,.06,0,0,.23.17.26.42-.11.32-.36c0,0,0,0,0,0s.18.32.08.43a.45.45,0,0,1-.58,0S16.45,4.94,16.58,5Zm.87-2.19c0-.11,0-.32.06-.44s.14-.33.2-.51a5.09,5.09,0,0,1,.16-.55,3.2,3.2,0,0,0,.27-.65v0s.14.16.15.2a1.21,1.21,0,0,1,0,.34,1.83,1.83,0,0,1-.23.93,2.47,2.47,0,0,0-.27.68c0,.17-.25.52-.43.34S17.43,2.87,17.45,2.77Zm-.79.68a2.9,2.9,0,0,1,.67-.07,1.15,1.15,0,0,1,.76.35,2,2,0,0,0,.15.21s-.2-.1-.18-.08a3.21,3.21,0,0,0-1.47-.33s-.21.07-.2,0S16.62,3.45,16.66,3.45Zm-.11,1a.62.62,0,0,1,.27-.14.79.79,0,0,1,.35,0,2.78,2.78,0,0,1,.26.16c.16.16-.11,0-.2,0a1.06,1.06,0,0,0-.61.14.78.78,0,0,1-.2.06s-.09-.1-.08-.06S16.52,4.43,16.56,4.4Zm.54,2a1.89,1.89,0,0,1-.77-.16,1.76,1.76,0,0,1-.4-.28,2.31,2.31,0,0,1-.13-.41l0-.07h0l0,.05c.06.08.18.12.26.2A2.25,2.25,0,0,0,17.09,6.36ZM14.5,2.81a3.08,3.08,0,0,1,.27-2c0-.09.07,0,.09,0A1.72,1.72,0,0,0,15,1a9.21,9.21,0,0,1,.66.75A3,3,0,0,1,16,2.93a1.54,1.54,0,0,1,.06.39s-.09,0-.12,0-.08.39-.11.61a1.18,1.18,0,0,1-.13-.64,3.1,3.1,0,0,0-.13-1.53,2.89,2.89,0,0,0-.34-.43s-.23-.21-.27-.19.06.24.08.29a3,3,0,0,1,.15.44,2.06,2.06,0,0,1,.09.27,2.47,2.47,0,0,1-.11.77s-.07-.09-.09-.13a3.07,3.07,0,0,0-.34-.56v0h0a2.43,2.43,0,0,0,.46,1.53s.22.16.22.19-.19.16-.2.16S15.09,4,15.07,4A3.67,3.67,0,0,1,14.5,2.81Zm.62,2.86s0-.15,0-.12-.12-.17-.07-.26a.91.91,0,0,1,.17.26C15.28,5.69,15.15,5.91,15.12,5.66Zm.18-.39c0,.08-.22-.42-.22-.58s.2,0,.23-.2-.06-.1,0-.14.13-.17.22-.17.15.2.08.34A4.69,4.69,0,0,0,15.3,5.28ZM13.49,33.19a.62.62,0,0,1,.41,0s0,.08,0,.08.09,0,.12,0,.1.15.16.2.42.1.55.25.09.12.06.17a3,3,0,0,1-.48.1,3.93,3.93,0,0,1-.36-.3,7,7,0,0,1-.5-.5S13.4,33.21,13.49,33.19Zm2.88,6.94c-.09,0-.08-.42-.07-.57a12.71,12.71,0,0,0,.06-2.17c0-.16,0-.39-.07-.49a1.88,1.88,0,0,1-.09-.2,3.22,3.22,0,0,0-.47-.75c0-.06.16-.08.27-.11a1.35,1.35,0,0,1,.28-.07c.41,0,.63.26.67.69A6.25,6.25,0,0,1,16.73,38a5.65,5.65,0,0,0-.08.78c0,.27-.08.53-.1.76s0,.51-.08.57S16.37,40.12,16.37,40.13Zm-.24-4.83c-.07.13-.43.35-.61.29s-.16-.24-.21-.3a7.9,7.9,0,0,0-.71-.82v0a0,0,0,0,1,0,0h0v0c.22.08.4-.19.62-.08s.15.23.26.32a.86.86,0,0,0,.26.13c.1,0,.3,0,.36,0S16.19,35.21,16.14,35.3Zm-2.65-.75c0-.19.08-.49.06-.63s0,0,0,0,0,0,0,0a2.5,2.5,0,0,1,.08.75,2.37,2.37,0,0,1,.06.83c0,.08-.12.26-.18.39s0-.21,0-.3S13.48,34.89,13.49,34.55ZM6.17,47.49c-.39.12-2,.1-2.49.15l2-.21c.29,0,.58-.1.77-.12S6.24,47.46,6.17,47.49Zm.57.57Zm2.11-1.24A4.86,4.86,0,0,0,11.49,45s0-.06,0,0,0,.21-.33.71A3.82,3.82,0,0,1,9.1,47.1a6.58,6.58,0,0,1-.65.16,9,9,0,0,1-1.7.16A11.46,11.46,0,0,1,8.86,46.82Zm2.84,0a3.49,3.49,0,0,1-.92.67,10.67,10.67,0,0,1-3.91.6,12.82,12.82,0,0,0,3-.79,3.24,3.24,0,0,0,.78-.45l.14-.12.17-.15a5.79,5.79,0,0,0,1.22-1.79,6.72,6.72,0,0,0,.26-.77,8.51,8.51,0,0,0,.21-1c.12-.66.28-1.21.39-1.94.18-1.24.15-2.74.34-3.93a3.35,3.35,0,0,1,0-.41c0-.11.09-.24.15-.39s.17-.6.16-.19c0,.83-.15,1.61-.21,2.43,0,.34-.05.71-.09,1s0,.42,0,.61c0,.47-.08,1-.14,1.53,0,0,0,.15,0,.1a.76.76,0,0,0,.09-.22,6.45,6.45,0,0,0,.11-.77c0-.43.05-.86.11-1.22,0-.15,0-.36,0-.51s0-.17,0-.24c0-.25,0-.49.09-.75.13-.7.3-1.4.46-2a4.67,4.67,0,0,1,.23-.56s0-.06,0,0c-.07.64-.26,1.23-.34,1.84-.32,2.49-.37,5.34-1.19,7.51A5,5,0,0,1,11.69,46.77Zm3.18-.15s0,.15,0,.19a2.8,2.8,0,0,1-.36,0c-.69,0-1.19.09-1.84.14a3.69,3.69,0,0,1-.72.08l.31-.36c.09-.12.23-.36.32-.4a3.41,3.41,0,0,1,.5,0c.5,0,1-.09,1.45-.1,0,0,.44,0,.48,0A2.48,2.48,0,0,1,14.88,46.62ZM15.25,45a1.15,1.15,0,0,1-.08.37c-.07.06-.12,0-.18,0a9.57,9.57,0,0,0-1.49.09l-.24,0c-.09,0-.27.1-.21,0A15.25,15.25,0,0,0,14.09,41c.07-.87.08-1.73.22-2.53A5.51,5.51,0,0,1,15.13,36s0,0,0,0,.07.09.18.16.16,0,.19.07.1.32.15.41c.15.24.34.29.37.68A16.19,16.19,0,0,1,16,39.68c-.08,1-.12,1.83-.23,2.66-.06.5-.18,1-.26,1.55C15.43,44.26,15.32,44.62,15.25,45Zm3.85,1.31a10.83,10.83,0,0,0,1.38.2c1.36.15,2.76.16,4,.22.07,0,.51,0,.3.07a3.15,3.15,0,0,0-.47.13c-.09,0-.34,0-.35.06s.52.13.54.15,0,.11.16.08c-.13,0-.07,0-.13.06-.21,0-.6,0-.86,0-.07,0-.27,0-.23.12a.92.92,0,0,0,.27.07c.23,0,.34,0,.61,0s.6.13.83.19-.1,0-.21.06c-.31,0-.69,0-1.06,0a9.64,9.64,0,0,1-1.39-.15c-.37,0-.75,0-1.12,0s-1-.12-1.52-.18a12.68,12.68,0,0,0-1.52-.13,4,4,0,0,0-.78,0c0,.06.32.15.41.13a4.87,4.87,0,0,1-1.09.16,3.74,3.74,0,0,1-1.24,0c-.07,0-.1-.22-.15-.33a2.49,2.49,0,0,1-.16-.33,3.14,3.14,0,0,1,.14-1.32c.13-.7.2-1.53.33-2.26,0-.12.05-.43.07-.44l.15,0c.27.08.2.25.15.57,0,.14,0,.21-.06.38-.05.49-.24,1.39-.33,1.85,0,0-.07.2,0,.22s.14-.16.13-.12a35,35,0,0,0,.92-4.9,6.2,6.2,0,0,1-.08,1.25c0,.7-.11,1.45-.2,2.05A16.35,16.35,0,0,0,16,46.81a.94.94,0,0,0,.13.5c.11.14.38.11.67.1.13,0,.58.06.61,0s-.2-.07-.25-.08a1.84,1.84,0,0,1-.41-.16c-.39-.28-.34-1-.22-1.55.14-.7.23-1.59.31-2.25s.17-1.32.24-2c.09-.89.11-1.81.13-2.65a11.24,11.24,0,0,1,.15-1.69,12.06,12.06,0,0,1,.41-1.48,1.72,1.72,0,0,1,.09-.29,1.6,1.6,0,0,1,.14-.25s-.07.25-.08.29A9.78,9.78,0,0,0,17.61,38c0,.27,0,.52,0,.8,0,1.23-.07,2.62-.17,3.69,0,.44-.13,1-.18,1.54,0,.1-.08.24,0,.16s.08-.51.15-.71a1.62,1.62,0,0,0,.15-.5c0-.32.06-.72.07-1,0-.47.09-1,.14-1.47,0-.33.06-.67.11-1,0-.15.14-.2.2-.33a3.1,3.1,0,0,0,.1-.92,14.22,14.22,0,0,1,.25-1.85,16.5,16.5,0,0,1,.34-1.65,5.21,5.21,0,0,1,.24-.6,2.83,2.83,0,0,0,.18-.44s0-.14,0-.14a2.23,2.23,0,0,0-.2.34c-.15.26-.24.43-.4.68a3,3,0,0,1-.22.32s.13-.42.13-.42a10.44,10.44,0,0,1,.51-1.24,10.83,10.83,0,0,0,.37-1.51,4.46,4.46,0,0,0,.16-1,8.77,8.77,0,0,0,0-1c0-.05,0-.27-.09-.23s0,.3,0,.34A8.58,8.58,0,0,1,19,32s-.12.39-.12.28c0-.31.1-.52.12-.82a14.23,14.23,0,0,0,.13-1.79,4.84,4.84,0,0,0-.07-.76,3.23,3.23,0,0,0-.48-.91,3.89,3.89,0,0,1-.29-1.07,2.05,2.05,0,0,0-.53-.83c-.11-.14-.21-.33-.33-.44a2,2,0,0,0-.86-.42c-.25-.08-.43-.21-.74-.32a4.37,4.37,0,0,0-.76-.15c-.26,0,0,0,.12,0a4.51,4.51,0,0,1,1.24.22,2.21,2.21,0,0,1,.68.15c.21.09.5.13.62.26A12.92,12.92,0,0,1,19,27.38a5,5,0,0,1,.92,2.43c0,.58,0,1,0,1.37a4,4,0,0,0-.06.5,6.36,6.36,0,0,1,0,.85,10.64,10.64,0,0,1-.44,2.19c-.14.5-.33.93-.43,1.43a11.76,11.76,0,0,0-.24,1.5c-.06.79-.21,1.54-.29,2.29-.19,1.76-.52,3.24-.65,4.91a.82.82,0,0,1,0,.22c0,.08-.19.05-.23.12s0,.12,0,.16a2.35,2.35,0,0,0-.14.94c0,.15.18.2.32.22a3.68,3.68,0,0,0,.87,0v0a1.17,1.17,0,0,1-.62-.4,1.84,1.84,0,0,1-.22-.55c.08-.15.23.13.26.18A1.85,1.85,0,0,0,19.1,46.34Zm2.08-26.58a16.79,16.79,0,0,0-.2,1.73c-.08,1.34-.09,2.66-.22,4-.12,1.14-.22,2.17-.4,3.23h0v0a13.56,13.56,0,0,0,.46-2.36,1.37,1.37,0,0,1,.07-.35s.1.19.11.2a6.43,6.43,0,0,1,.46,1.66,12.69,12.69,0,0,1,.15,2.56,7.92,7.92,0,0,1-.22,1.79c-.09.34-.3.67-.37,1-.12.51-.43.93-.55,1.49a14.4,14.4,0,0,0-.23,1.66h0v0s0,0,0,0v0h0c-.23,1.82-.45,3.51-.63,5.25a7.42,7.42,0,0,0-.06,1.26,1,1,0,0,0,.57.89c1.56.83,4,.76,5.85,1.17L24.85,45v0l0,0c.42.1,1,0,1.38.13a5.9,5.9,0,0,0-1.2.13h0c.11,0,.41.17.35.26l-.26.08a5.4,5.4,0,0,1-1.62-.09,15.2,15.2,0,0,0-3.1-.11c-.58.05-1.1,0-1.57,0a1.54,1.54,0,0,1-.25,0s-.18.05-.26,0a.68.68,0,0,1-.15-.56.44.44,0,0,1,.19-.1s0,.18,0,.22a.39.39,0,0,0,.29.18c.25,0,.51-.15.77-.18.91-.1,1.9.21,2.74.16v0l0,0a16.8,16.8,0,0,0-2.64-.34c-.13,0-.66,0-.71-.09s.09-.36.09-.46,0-.07,0-.09,0-.08,0-.12a5.88,5.88,0,0,1,0-1.05c.06-1.65.11-3.22.23-4.89,0-.63.13-1.2.16-1.85a2.62,2.62,0,0,1,.27-1,4.12,4.12,0,0,0,.15-.48,15.07,15.07,0,0,0,.53-3.17A7.86,7.86,0,0,0,20,28.54a1.81,1.81,0,0,1-.11-.19A5.83,5.83,0,0,0,19,26.7c-.14-.19-.22-.39-.35-.6s-.34-.41-.5-.63a2.6,2.6,0,0,0-.52-.62,2,2,0,0,0-.93-.23c-.31,0-.68-.22-1.06-.25a1.64,1.64,0,0,0-.38,0c-.09,0-.45.08-.33,0a2.42,2.42,0,0,1,1.82-.07,6.69,6.69,0,0,0,.66.13,1.93,1.93,0,0,1,1.12.89l.25.29c.09,0,.14-.33.14-.44,0-.66-.72-1-.92-1.51-.11-.26.12-.22.31-.15s1,.24,1-.22c0-.11-.09-.22-.09-.34a.42.42,0,0,1,.15-.3c.07,0,.16,0,.23,0,.76-.37.58-1.69.72-2.69,0-.28.11-.52.16-.76,0-.07.3,0,.4,0a1.75,1.75,0,0,1,.38,0A3.1,3.1,0,0,1,21.18,19.76Zm3.45-2.66s-.19.49-.29.51h0v0a3.49,3.49,0,0,0,.57-.2c.08,0,.31-.14.36-.1s-.15.28-.21.34-.26.14-.31.23h0v0c.28,0,.85-.24,1.12-.13a1.29,1.29,0,0,1,.21.24,2.5,2.5,0,0,1-.51.12,4,4,0,0,0-.85.3h0v0a1.63,1.63,0,0,1,1.11.53c0,.06.2.29.06.21a3.61,3.61,0,0,0-.9-.35s-.54-.08-.55-.07.1.08.06.06a2.52,2.52,0,0,1,.54.32,1.92,1.92,0,0,1,.22.27s-.17.14-.19.14c-.24,0-.44-.33-.59-.42a2.9,2.9,0,0,0-1.34-.27c-.69,0-1.5,0-2.21,0s-1.17-.1-1.75-.14-1.27-.14-1.88-.15a2.25,2.25,0,0,1-.75,0c-.54-.21-.48-1-.52-1.59s-.13-1.34-.22-2.09a5.8,5.8,0,0,1,.26.71c.09.21.27.36.36.55a1.79,1.79,0,0,1,0,.82c0,.61.07,1.19.64,1.27,0,0,.09,0,.14,0s.12.07.19.08a5.85,5.85,0,0,0,.69,0c.26,0,.5.1.78.11a6.22,6.22,0,0,1,.65.1,27,27,0,0,0,2.8.28v0l0,0a9.78,9.78,0,0,1-1-.29c-.28-.1-.61-.07-.89-.16a2.39,2.39,0,0,0-.56-.18c-.06,0-.11,0-.17-.06-.45-.12-1.05-.11-1.49-.25a6,6,0,0,1-.77-.44l-.09,0a1.71,1.71,0,0,1-.4-.53,1.1,1.1,0,0,1,.08-.75c.08-.11.28-.12.41-.18A1,1,0,0,0,18.1,15c0-.08-.07-.35,0-.41s.33.1.37.15.09.37.2.49l0,0h0a1.91,1.91,0,0,0-.1-.57,3.21,3.21,0,0,0,0-.52.81.81,0,0,0-.14-.22c0-.06-.15-.08-.19-.16s0-.3,0-.49a.62.62,0,0,0-.12-.32c-.06-.07-.17-.12-.21-.2a1.05,1.05,0,0,1,0-.23c0-.14-.1-.36-.13-.52s.08,0,.14,0a1.36,1.36,0,0,1,.45.77,5.74,5.74,0,0,0,.23.54c0,.09.15.23.13,0s0-.31,0-.44a7.79,7.79,0,0,0,.09-.9c0-.29-.22-.42-.15-.75,0-.16.17-.26.14-.47s-.19-.46-.23-.75c0-.09,0-.18,0-.27a3.91,3.91,0,0,1,0-1.23c.05-.21.07.17.07.21a3.88,3.88,0,0,0,.85,1.94,5.56,5.56,0,0,1,1,1,9.57,9.57,0,0,1,1.24,2.59,4.47,4.47,0,0,1,.23,1.28,4.6,4.6,0,0,1-.3,1.41s-.07.31-.08.32-.23-.23-.23-.25a1.43,1.43,0,0,1,0-.45A5.76,5.76,0,0,0,21.15,15a6.44,6.44,0,0,0-.73-1.76c-.06-.11-.17-.35-.25-.32s.08.23.09.25A6,6,0,0,1,21,16.28a1.55,1.55,0,0,1,0,.38c-.07.06-.28-.12-.35-.17s-.36-.45-.55-.66h0c-.05.22.09,1-.17,1-.08,0-.22-.08-.29-.11l-.31-.09c-.28,0-.19-.1-.31-.29s-.1-.06-.13-.12,0-.08,0-.14-.27-.29-.3-.41,0-.13,0-.22a3.92,3.92,0,0,0-.19-.37c-.09,0-.12.32-.14.43a2.91,2.91,0,0,0-.1.78c0,.11,0,.35,0,.42s.28.07.42.09a6.91,6.91,0,0,1,.84.26,15.24,15.24,0,0,0,1.9.49,6.69,6.69,0,0,0,1,.15,5.41,5.41,0,0,0,1.27,0,1.72,1.72,0,0,0,.52-.33C24.15,17.35,24.52,17.06,24.63,17.1Zm-.21-6.26c-.21.13-.39.3-.59.45a2.16,2.16,0,0,0-.44.51,2.8,2.8,0,0,0-.4,1.45,9.27,9.27,0,0,0,1,3.35,2.22,2.22,0,0,1,.2.43c-.06.11-.18,0-.2-.06a8.82,8.82,0,0,1-.83-1.45,8.11,8.11,0,0,1-.63-2,2.44,2.44,0,0,1,.48-2,5.26,5.26,0,0,1,1.27-1c.49-.29.91-.53,1.35-.74l.21-.11c-.07.07-.38.33-.49.42A10.39,10.39,0,0,1,24.42,10.83Zm1.8-1.09a3.24,3.24,0,0,1-.39.23s.24-.22.18-.17a1.17,1.17,0,0,1,.39-.26c.32-.14.53-.25.78-.33C26.82,9.41,26.56,9.57,26.22,9.75Zm1.18-.65Z"/><path class="cls-1" d="M53.22,23.48Z"/><path class="cls-1" d="M57.11,17a.3.3,0,0,0,0-.06h0a.2.2,0,0,1,0,.06h0Z"/><path class="cls-1" d="M54.24,18.65h0a0,0,0,0,0,0,0h0s0,0,0,0h0Z"/><path class="cls-1" d="M54.51,47.1h-.06a0,0,0,0,0,0,0h0Z"/><path class="cls-1" d="M62.59,48.19h0Z"/><path class="cls-1" d="M62.64,48.19h0Z"/><path class="cls-1" d="M80.94,47.56a17.93,17.93,0,0,0-2.22-.35L76,47.06a6.13,6.13,0,0,1-.86-.07c-1.75-.33-3.68-.68-4.46-2a6.14,6.14,0,0,1-.58-2c-.07-.4-.12-.8-.16-1.2-.1-.85,0-1.69,0-2.55,0-.16,0-.32,0-.48s0-.13,0-.21,0-.27,0-.34c0-.38,0-.74,0-1.1,0-1,0-2.34.16-3.61,0-.43.15-.86.18-1.28a15.42,15.42,0,0,0,0-2.35c0-.39-.08-.73-.12-1.15s-.1-.58-.15-.88a13.89,13.89,0,0,0-.86-2.76c-.34-.86-.59-1.95-.9-2.79-.17-.46-.37-.91-.53-1.4-.31-.95-.55-1.88-.92-2.87a7.25,7.25,0,0,1-.42-1.48,5.78,5.78,0,0,1,.06-.9c0-.63.1-1.33.09-2a24.51,24.51,0,0,0-.36-2.64A9.69,9.69,0,0,1,66,9.59c0-.48.16-.91.18-1.43,0-.15,0-.3,0-.46a6,6,0,0,1,.22-.92c.08-.32.13-.66.19-1A5.21,5.21,0,0,0,66.68,4s-.06-.09-.06-.14.24-.37.29-.47a2.85,2.85,0,0,0,.34-1.22A3.91,3.91,0,0,0,67,.44c0-.08-.25-.3-.44-.21s-.09.12-.14.19a4.77,4.77,0,0,0-1,1.33c-.12.36-.1.7-.2,1.07a1.34,1.34,0,0,1,0,.15c-.05,0-.28-.13-.34-.18A4.7,4.7,0,0,1,63.69.59,5.46,5.46,0,0,0,63.42,0h0a.4.4,0,0,0-.2,0,1.48,1.48,0,0,0-.51,1A6.34,6.34,0,0,0,63,2.82c0,.06,0,.68,0,.7a1.17,1.17,0,0,1-.24.25c-.08,0-.17,0-.27,0a.84.84,0,0,0-.41.46s0,.12,0,.14-.19,0-.22,0,.18.11.23.16-.07.27-.18.37a10.34,10.34,0,0,1-.86,1c-.14.1-.35.16-.39.32s0,.09,0,.13a4.32,4.32,0,0,0-.07.44c0,.4.26.95.76,1,.1,0,.12-.06.2-.06s.2.1.32.14a1,1,0,0,0,.41,0c.05,0,.17-.11.25-.06s0,.33,0,.41a3.66,3.66,0,0,1-.42,1.18,4.19,4.19,0,0,1-.48,1c-.25.29-.56.5-.82.83a4.92,4.92,0,0,0-.33.49,2.61,2.61,0,0,0-.27.5s-.05-.26-.07-.38a2.22,2.22,0,0,0-.82-1.33,18.87,18.87,0,0,0-5.86-2.76c-.33-.1-.94-.29-1.25-.07s.14.9.36,1.06a8.56,8.56,0,0,0,1.25.66,21,21,0,0,1,3.48,2.22A1.82,1.82,0,0,1,58,13.4c-.05.23-.17.52-.25.78,0,.07,0,.24-.08.26s-.5-.17-.56-.2a2.27,2.27,0,0,1-.5-.26c-.07-.06-.14-.22-.26-.32a2.3,2.3,0,0,1-.2-.21c-.07-.07-.18-.11-.27-.19s-.1-.16-.16-.21-.21-.06-.24-.12,0-.25,0-.33c-.09-.27-.37-.49-.63-.3l-.12.09s-.11-.16-.15-.2a.5.5,0,0,0-.7,0c-.05.05-.12.3-.18.32s-.09-.08-.17-.08a.38.38,0,0,0-.41.35s0,.22,0,.25a.56.56,0,0,0-.28,0,.36.36,0,0,0-.18.34c0,.41.41.63.73.8.06,0,.47.33.55.21s-.08-.14-.12-.22-.11-.22,0-.26.2.2.25.25.23.18.28.14-.1-.2-.07-.28a1.39,1.39,0,0,0,.22-.21s0,.13,0,.15.35.4.41.32-.09-.24,0-.31.1,0,.15,0,.15-.17.19-.18.24.23.27.26.5.42.73.15c0,0,.06-.18.11-.18s.21.26.27.29a5.29,5.29,0,0,0,.86.35l.2.07a2.23,2.23,0,0,1-.17.47l-.08.23s-.06.21-.09.23S57,15.42,57,15.4a3.2,3.2,0,0,0-.63-.31c-.06,0-.55-.27-.55-.11s.72.45.8.48a2.33,2.33,0,0,1,.29.16,2.37,2.37,0,0,1,.27.17c0,.06-.08.13-.11.18s-.11.24-.2.41-.16.35-.24.38-.13,0-.16,0a.55.55,0,0,0-.32.16s0,.1,0,.11-.2,0-.22,0a.73.73,0,0,0-.35.15c-.08.08,0,.18-.12.29s-.25.08-.34.16a.53.53,0,0,0-.15.35c0,.12.06.13.06.19a1.22,1.22,0,0,0,0,.5s.09.18.13.18.06-.13.08-.2.13-.37.38-.36h.19s-.08.2-.06.18c-.11.17-.53.29-.56.54,0,0,0,.09,0,.14,0,.23-.17.43-.06.72a.62.62,0,0,0,1.06.06c.11-.14.11-.18.32-.26s.4-.39.63-.51a3.17,3.17,0,0,1,1.54-.2c.37,0,.79,0,1.12,0a1.66,1.66,0,0,1,.22,0,6,6,0,0,1,.12.82c.26,1.68.13,3.32.3,5a2.49,2.49,0,0,1,.06.53c0,.1-.17.21-.22.33a9.14,9.14,0,0,0-.59,1.75,11.46,11.46,0,0,0-.15,3.5,5,5,0,0,0,.13.76,8.1,8.1,0,0,0,.24.78l.07.21.09.23c.16.42.41.82.57,1.23A15.89,15.89,0,0,1,61,37.13c0,.25.08.46.12.73s.07.61.12.79a5.58,5.58,0,0,1,.09.85c.07.79.17,1.72.28,2.48.09.56.08,1.32-.41,1.55a10,10,0,0,1-3.53.75,9.15,9.15,0,0,0-1.37.17,2.42,2.42,0,0,1-.66.06,2.8,2.8,0,0,0-.69-.07,3.39,3.39,0,0,0-.77.25c-.2.09-.32.16-.53.27s-.22.11-.19.17.19,0,.22,0a.58.58,0,0,1-.07.14s-.11,0-.16,0a1.45,1.45,0,0,0-.45.28c-.07.06,0,0,0,.06s.48,0,.66,0,.12,0,.19,0,.44-.05.2.06c-.05,0-.32.17-.26.23s.37-.07.47,0,.29.15.46.19c.37.09,1-.2,1.34-.13.09,0,.19.07.27.08a2.74,2.74,0,0,0,.61,0c1,0,2.15-.22,3.07-.25l1.22,0c.43,0,.83.07,1.25.07.14,0,.18,0,.35,0s.29,0,.28.06-.5.22-.5.22a9.79,9.79,0,0,1-1.43.19c-.41,0-.83.1-1.22.12a4.76,4.76,0,0,1-.48,0,8.27,8.27,0,0,0-1.2-.08,7.51,7.51,0,0,0-.8.18c-.36.07-.74,0-1.09,0a3.78,3.78,0,0,0-.87.38c-.06,0-.09.09-.13.1s0,0-.12,0-.44.19-.41.25.33,0,.46,0,.3,0,.13.09a5.23,5.23,0,0,0-.55.15s-.28.23-.24.27.47-.11.65,0a2.2,2.2,0,0,0,.23.1c.09,0-.07.06-.1.08s-.33.29-.21.36.17-.07.22-.08a1.58,1.58,0,0,1,.48,0,1.12,1.12,0,0,1,.18.08,3.75,3.75,0,0,0,.67,0,1.83,1.83,0,0,0,.63.07c.22,0,.46-.1.71-.12.92-.06,1.64-.08,2.56-.15a22.63,22.63,0,0,1,3.24-.18,9.34,9.34,0,0,0,1.91,0,2,2,0,0,0,.41-.08c.11,0,.16-.2.31-.21h.33c1.11,0,2.11,0,3.22.12.19,0,.39,0,.52,0s.32.17.5.22a20.83,20.83,0,0,0,5.79.51c.9,0,1.94-.08,3-.08a4.09,4.09,0,0,0,1-.07c.22-.05.71-.29.7-.49S81.15,47.6,80.94,47.56ZM53.36,12.94c-.15.12,0-.28.06-.3a.22.22,0,0,1,.09,0s.07,0,.09.06S53.45,12.87,53.36,12.94Zm1.15-.3a2,2,0,0,1-.2-.11.38.38,0,0,0-.45.25c-.12.22-.06-.11,0-.22s.17-.28.29-.27a.45.45,0,0,1,.27.13C54.46,12.47,54.55,12.62,54.51,12.63Zm.76.27s-.19-.15-.2-.15a.64.64,0,0,0-.28,0s-.1.08-.12.06.2-.32.24-.34a.3.3,0,0,1,.13,0,.31.31,0,0,1,.11.07S55.33,12.87,55.28,12.9ZM66.75,33.7c.13-.15.41-.13.55-.25s.1-.15.16-.2.1,0,.12,0,0-.07,0-.08a.62.62,0,0,1,.41,0c.09,0,.05,0,0,.08a7.13,7.13,0,0,1-.5.51,3.87,3.87,0,0,1-.37.31,3,3,0,0,1-.48-.11S66.74,33.71,66.75,33.7Zm1.27.76c0,.34,0,.77,0,1,0,.09,0,.48,0,.3s-.15-.3-.18-.39a2.33,2.33,0,0,1,.06-.84,2.51,2.51,0,0,1,.08-.75s0,0,0,0v0C67.94,34,68,34.27,68,34.46Zm-2.83,5c0,.15,0,.53-.07.57s-.11,0-.09,0-.06-.43-.08-.58-.09-.49-.11-.76a6.09,6.09,0,0,0-.08-.79,6.19,6.19,0,0,1-.21-1.55c0-.43.26-.73.67-.69a1.3,1.3,0,0,1,.28.07c.11,0,.31.06.27.12a3.21,3.21,0,0,0-.47.75c0,.09-.07.14-.09.2s0,.34-.07.5A13,13,0,0,0,65.19,39.5Zm.17-4.29c-.05-.09-.11-.42,0-.47s.27,0,.36,0A.87.87,0,0,0,66,34.6c.11-.09.15-.26.26-.32s.4.17.62.09v0h0s0,0,0,0v0a7.6,7.6,0,0,0-.72.82c0,.06-.16.29-.21.3S65.43,35.35,65.36,35.21ZM66.2,5a4.75,4.75,0,0,0-.34-.75c-.07-.14,0-.34.08-.34s.16.14.22.17,0,.05,0,.14.24,0,.24.2S66.22,5.06,66.2,5Zm.15.27s0,.11,0,.12c0,.25-.16,0-.13-.12A.88.88,0,0,1,66.42,5C66.47,5.08,66.36,5.21,66.35,5.26Zm-.82-2.63a3,3,0,0,1,.29-1.2,9.82,9.82,0,0,1,.67-.75A1.73,1.73,0,0,0,66.64.5s0-.12.09,0a3.11,3.11,0,0,1,.27,2,3.72,3.72,0,0,1-.58,1.18,1.77,1.77,0,0,1-.09.15s-.2-.1-.2-.17.17-.14.22-.19a2.44,2.44,0,0,0,.46-1.54h0v0a2.89,2.89,0,0,0-.34.56s-.07.14-.09.13a2.47,2.47,0,0,1-.1-.78,1.63,1.63,0,0,1,.09-.27,3,3,0,0,1,.15-.45c0-.05.14-.25.08-.29S66.33,1,66.3,1a2.87,2.87,0,0,0-.34.43A3.11,3.11,0,0,0,65.82,3a1.19,1.19,0,0,1-.13.65c0-.21,0-.51-.11-.61s-.09,0-.12,0A1.59,1.59,0,0,1,65.53,2.63Zm-.11,2.78c.08-.08.19-.12.26-.2l0-.05h0l0,.06a2.33,2.33,0,0,1-.13.41,1.8,1.8,0,0,1-.4.28,1.89,1.89,0,0,1-.78.16A2.26,2.26,0,0,0,65.43,5.41Zm-1.07-1s-.31.1-.22,0,.2-.09.29-.07l.33.08s.18.12.15.14S64.41,4.42,64.36,4.41Zm.39.31s-.05.08-.11.08-.12,0-.12-.08.05-.08.12-.08S64.74,4.67,64.74,4.72Zm-.43-.19c.08,0,.06,0,0,0-.1.25.11.4.32.36s.14-.21.17-.26.06,0,.06,0-.06.26-.09.29a.45.45,0,0,1-.59,0C64.13,4.85,64.11,4.5,64.31,4.53Zm.83-.25s-.13.07-.08.06a.85.85,0,0,1-.2-.06,1.06,1.06,0,0,0-.61-.14c-.09,0-.36.15-.2,0A2.41,2.41,0,0,1,64.31,4a.79.79,0,0,1,.35,0,.63.63,0,0,1,.27.14S65.16,4.22,65.14,4.28Zm-.32-1.14s.26,0,.27.07-.2,0-.2,0a3.24,3.24,0,0,0-1.48.33s-.16.11-.18.08a2.32,2.32,0,0,0,.15-.21,1.15,1.15,0,0,1,.76-.35A2.9,2.9,0,0,1,64.83,3.14ZM63.14.8a1.19,1.19,0,0,1,0-.34s.13-.22.15-.2v0a3.29,3.29,0,0,0,.27.66,5.1,5.1,0,0,1,.16.55c.05.18.15.36.2.52s0,.34.06.45.16.2,0,.3-.39-.16-.44-.34a2.49,2.49,0,0,0-.27-.68A1.84,1.84,0,0,1,63.14.8Zm-1.4,4.76A3.31,3.31,0,0,1,62.21,5c.08-.07.28-.17.29-.26s-.06-.08-.06-.14.15-.16.12-.27h0v0c-.28-.07.11-.47.33-.36s0,.35,0,.49-.19.17-.28.32a3.28,3.28,0,0,1-.47.6l-.37.34C61.55,5.82,61.72,5.59,61.74,5.56Zm-.46,2a1,1,0,0,1-.42-.81s0-.08,0-.07,0,.14,0,.16a1.05,1.05,0,0,0,.35.61C61.34,7.46,61.51,7.61,61.28,7.51Zm1.2.06a1.07,1.07,0,0,1-.62,0c-.09,0-.52-.33-.46-.39a.76.76,0,0,0,.12-.31c.06-.35.26-.2.5-.34.08,0,.25-.31.11-.42a.46.46,0,0,0-.27,0c-.08,0-.13.19-.26.2h-.07a3.24,3.24,0,0,1-.32.15c-.06,0,0-.26,0-.28s.25-.07.4-.16.09-.1.1-.11,0,0,.11-.08.34-.25.52-.43a4,4,0,0,1,.53-.52c.17-.11.28-.35.54-.37,0,0,0,0,0,0s-.1.25-.09.25c-.19.3-.91.5-1,.93a.52.52,0,0,0,0,.32c.06.09.2,0,.24.09s0,.28-.07.34a1.49,1.49,0,0,1-.34.32s-.16,0-.15.07.23,0,.28,0,.09.14.26.07-.05.22-.1.28a1.54,1.54,0,0,1-.24.18c-.06,0-.21,0-.2.08s.39,0,.42,0c.25-.1.52-.45.8-.52s.35,0,.33,0-.39.27-.47.38,0,.1.08.12a2.45,2.45,0,0,0,1.49-.18,4.26,4.26,0,0,0,.8-.72,1.72,1.72,0,0,0,.21-.36,1.68,1.68,0,0,1,.21-.33,6.29,6.29,0,0,1-.12.64A2,2,0,0,1,65.5,7a1.76,1.76,0,0,1-.8.52,5.09,5.09,0,0,1-1,.08c-.12,0-.47.1-.59,0s-.06-.18-.13-.22S62.64,7.53,62.48,7.57ZM59.29,15.2s0,.09,0,.1a4.5,4.5,0,0,0,.19,1.36c0,.08.08.3,0,.21l-.35-.28c-.07-.05-.4-.21-.4-.33s.22-.41.27-.49.23-.33.29-.47C59.23,15.33,59.25,15.15,59.29,15.2Zm.32,2.09a5.84,5.84,0,0,1-1.36.07c-.14,0-.25,0-.21-.07s.42-.73.51-.71,0,0,0,0a6.05,6.05,0,0,0,.86.54C59.5,17.17,59.69,17.27,59.61,17.28ZM54,8.83Zm1.19.65c-.34-.18-.6-.34-1-.54.25.09.46.2.78.34a1.18,1.18,0,0,1,.39.27c-.06-.05.2.17.18.17A3.21,3.21,0,0,1,55.2,9.48Zm2.2,6.9A9.31,9.31,0,0,0,58.46,13a2.82,2.82,0,0,0-.4-1.46,2.15,2.15,0,0,0-.45-.52,7.47,7.47,0,0,0-.6-.46,10.34,10.34,0,0,1-1-.67c-.11-.09-.43-.34-.5-.42l.21.11c.45.21.87.45,1.36.74a5.36,5.36,0,0,1,1.28,1,2.47,2.47,0,0,1,.48,2,8,8,0,0,1-.64,2,8.85,8.85,0,0,1-.83,1.46s-.14.17-.2.06A2.25,2.25,0,0,1,57.4,16.38Zm.85,2.31A2.92,2.92,0,0,0,56.9,19c-.15.09-.36.45-.6.42,0,0-.18-.09-.19-.14a1.86,1.86,0,0,1,.22-.27,2.59,2.59,0,0,1,.54-.32s.08,0,.06-.06-.53.07-.55.07a3.67,3.67,0,0,0-.9.35c-.14.08,0-.15.06-.21a1.64,1.64,0,0,1,1.12-.53v0h0a4.15,4.15,0,0,0-.86-.31,2.39,2.39,0,0,1-.52-.12,1.38,1.38,0,0,1,.21-.24c.28-.11.84.16,1.13.13v0h0c-.06-.09-.19-.12-.32-.24s-.29-.28-.21-.34.28.08.37.11a3.4,3.4,0,0,0,.57.2v0h0c-.1,0-.3-.51-.29-.52s.49.25.56.31a1.79,1.79,0,0,0,.53.33,5.42,5.42,0,0,0,1.28,0,6.62,6.62,0,0,0,1-.15,15.19,15.19,0,0,0,1.92-.49,7.25,7.25,0,0,1,.85-.26c.14,0,.34,0,.42-.09s0-.31,0-.42a3,3,0,0,0-.1-.79c0-.11,0-.44-.14-.43a3.66,3.66,0,0,0-.19.38c0,.1,0,.15,0,.22s-.22.22-.31.41,0,.1,0,.14-.09.07-.13.12,0,.24-.31.29l-.32.09c-.07,0-.21.13-.29.11-.26-.07-.11-.84-.17-1.06h0c-.19.22-.37.51-.55.67s-.28.23-.35.18a1.44,1.44,0,0,1,0-.39A6,6,0,0,1,61.2,13s.16-.22.1-.25-.19.21-.25.32a6.54,6.54,0,0,0-.74,1.77,5.78,5.78,0,0,0-.12,1.62,1.36,1.36,0,0,1,0,.46s-.2.27-.24.25-.07-.28-.08-.32a4.6,4.6,0,0,1-.31-1.42,4.57,4.57,0,0,1,.24-1.29A9.62,9.62,0,0,1,61,11.49a5.59,5.59,0,0,1,1-1.06,3.87,3.87,0,0,0,.86-2s0-.42.07-.21a4,4,0,0,1,0,1.23c0,.09,0,.18,0,.27,0,.29-.2.52-.24.75s.11.31.14.47c.07.33-.12.46-.15.75a8.15,8.15,0,0,0,.09.9c0,.14,0,.31,0,.45s.09.06.13,0a5.66,5.66,0,0,0,.24-.54,1.36,1.36,0,0,1,.46-.78c.06,0,.18-.22.14,0s-.1.39-.13.53a1.25,1.25,0,0,1,0,.24c0,.08-.15.13-.21.2a.61.61,0,0,0-.12.32c0,.19.07.36,0,.49s-.14.11-.19.17a.79.79,0,0,0-.14.22,3.43,3.43,0,0,0,0,.53,1.93,1.93,0,0,0-.1.58h0l0,0c.11-.12.08-.35.2-.49s.32-.21.38-.15,0,.33,0,.41a1,1,0,0,0,.6.93c.13.05.33.06.41.18a1.1,1.1,0,0,1,.08.75,1.74,1.74,0,0,1-.4.54l-.1,0a6.32,6.32,0,0,1-.77.45c-.44.14-1.06.13-1.5.25-.07,0-.12.06-.18.06a2.4,2.4,0,0,0-.56.18c-.28.09-.61.06-.89.16a9.67,9.67,0,0,1-1,.29l0,0v0a27.37,27.37,0,0,0,2.82-.28c.22,0,.46-.1.66-.11s.52-.09.79-.1a6.65,6.65,0,0,0,.69,0c.07,0,.13-.07.19-.08s.09,0,.14,0c.57-.09.66-.66.65-1.28A1.77,1.77,0,0,1,65,16c.1-.19.27-.34.37-.55a6.27,6.27,0,0,1,.26-.71c-.09.75-.16,1.36-.22,2.1s0,1.38-.53,1.6a2.28,2.28,0,0,1-.75,0c-.61,0-1.25.11-1.89.15s-1.16.12-1.76.14S58.95,18.7,58.25,18.69Zm4.66,26.77a1.52,1.52,0,0,1-.24,0c-.48,0-1,0-1.59,0a15.17,15.17,0,0,0-3.12.12,5.49,5.49,0,0,1-1.63.09l-.26-.08c-.06-.09.24-.23.35-.26h0a5.85,5.85,0,0,0-1.21-.13c.39-.14,1,0,1.39-.13l0,0v0l-1.14-.09c1.89-.42,4.31-.34,5.89-1.18a1,1,0,0,0,.57-.9,7.5,7.5,0,0,0-.06-1.27c-.18-1.76-.4-3.46-.63-5.29h0v0s0,0,0,0v0h0A14.56,14.56,0,0,0,61,34.57c-.12-.56-.43-1-.55-1.5-.07-.32-.28-.64-.38-1a8,8,0,0,1-.22-1.8A12.79,12.79,0,0,1,60,27.71,6.39,6.39,0,0,1,60.43,26s.08-.21.11-.2a1.27,1.27,0,0,1,.07.35,13.86,13.86,0,0,0,.46,2.37v0h0c-.18-1.07-.28-2.11-.4-3.25-.14-1.3-.14-2.64-.22-4,0-.56-.11-1.22-.2-1.74a3,3,0,0,1-.07-.59,2,2,0,0,1,.39,0c.09,0,.38,0,.4,0,.06.24.12.48.17.76.14,1,0,2.33.73,2.7.07,0,.17,0,.23,0a.42.42,0,0,1,.15.31c0,.12-.09.23-.09.34,0,.47.66.35,1,.23s.42-.11.32.15c-.2.49-.91.87-.93,1.52,0,.12.06.44.14.45l.25-.3a2,2,0,0,1,1.13-.89,6.2,6.2,0,0,0,.67-.13,2.44,2.44,0,0,1,1.83.07c.12.06-.24,0-.33,0a1.73,1.73,0,0,0-.39,0c-.38,0-.76.22-1.07.25a2,2,0,0,0-.94.23,2.69,2.69,0,0,0-.53.62c-.16.22-.38.43-.51.64s-.22.4-.35.6a5.88,5.88,0,0,0-.88,1.66,1.54,1.54,0,0,1-.1.19,7.87,7.87,0,0,0-.28,3.17,15.06,15.06,0,0,0,.54,3.2,4.12,4.12,0,0,0,.15.48,2.64,2.64,0,0,1,.27,1c0,.66.12,1.23.16,1.87.13,1.68.18,3.26.23,4.92a6,6,0,0,1,0,1.06.84.84,0,0,0,0,.12s0,.08,0,.09.17.34.1.46-.58.08-.72.09a17,17,0,0,0-2.66.34l0,0v0c.84,0,1.84-.26,2.76-.16.26,0,.52.17.77.18a.4.4,0,0,0,.29-.18s0-.21,0-.22a.45.45,0,0,1,.19.11.68.68,0,0,1-.15.56C63.1,45.52,62.94,45.47,62.91,45.47Zm3.22,1.45a2.59,2.59,0,0,1-.16.33c0,.11-.09.29-.15.33a3.8,3.8,0,0,1-1.25,0,5,5,0,0,1-1.09-.16c.09,0,.44-.07.41-.13a4,4,0,0,0-.79,0,12.68,12.68,0,0,0-1.53.13c-.5.05-1,.13-1.53.18s-.76,0-1.13,0a9.62,9.62,0,0,1-1.4.16c-.37,0-.75,0-1.07,0-.11,0-.46,0-.21-.06s.64-.17.83-.19.38,0,.61,0a.94.94,0,0,0,.27-.07c0-.08-.16-.11-.24-.12-.27,0-.66,0-.87,0-.06,0,0,0-.13-.06.18,0,.11,0,.16-.08s.55-.1.54-.15-.27,0-.35-.06a3.43,3.43,0,0,0-.47-.13c-.21,0,.24-.07.31-.07,1.3-.06,2.71-.08,4.08-.23a10.43,10.43,0,0,0,1.39-.2,1.85,1.85,0,0,0,1.14-.67s.18-.33.26-.18a1.85,1.85,0,0,1-.22.55,1.18,1.18,0,0,1-.62.4v0a3.75,3.75,0,0,0,.88,0c.14,0,.28-.07.32-.22a2.36,2.36,0,0,0-.14-1s0-.14,0-.16-.19,0-.23-.12a.79.79,0,0,1,0-.22c-.13-1.69-.47-3.18-.66-4.94-.08-.76-.23-1.51-.29-2.3a12.12,12.12,0,0,0-.24-1.51c-.1-.5-.29-.93-.43-1.44a10.56,10.56,0,0,1-.45-2.21,6.12,6.12,0,0,1,0-.86,4.59,4.59,0,0,0-.06-.5c0-.39,0-.79,0-1.38a5,5,0,0,1,.93-2.44,12.76,12.76,0,0,1,1.27-2.09c.12-.13.41-.17.62-.26a2.24,2.24,0,0,1,.68-.15,4.56,4.56,0,0,1,1.25-.22c.07,0,.38,0,.12,0a4.46,4.46,0,0,0-.76.15c-.3.1-.49.24-.74.32a2,2,0,0,0-.87.42c-.12.12-.22.31-.33.45a2.06,2.06,0,0,0-.53.83,4,4,0,0,1-.29,1.08,3.23,3.23,0,0,0-.48.92,4.66,4.66,0,0,0-.07.77,14.91,14.91,0,0,0,.13,1.81c0,.3.1.51.12.82,0,.11-.1-.24-.12-.28a8.56,8.56,0,0,1-.43-2.07s0-.31,0-.34-.09.18-.09.23a9.18,9.18,0,0,0,0,1,4.43,4.43,0,0,0,.17,1,10.84,10.84,0,0,0,.38,1.52A11.06,11.06,0,0,1,63,34.48s.14.42.13.43a3,3,0,0,1-.22-.32c-.16-.25-.25-.42-.4-.68a2.35,2.35,0,0,0-.2-.34c-.07,0,0,.12,0,.14a3.13,3.13,0,0,0,.19.45,5,5,0,0,1,.24.61c.16.61.23,1,.34,1.66a14.36,14.36,0,0,1,.25,1.87,3.18,3.18,0,0,0,.1.93c.06.13.18.18.2.33.05.31.07.66.11,1,.06.51.13,1,.14,1.48,0,.25,0,.66.07,1a1.68,1.68,0,0,0,.15.5c.07.21,0,.63.15.72s0-.07,0-.17c0-.56-.13-1.1-.18-1.55-.11-1.08-.18-2.47-.18-3.71,0-.29,0-.54,0-.81a10,10,0,0,0-.32-2.84s-.11-.29-.08-.29a1.36,1.36,0,0,1,.14.25,1.57,1.57,0,0,1,.1.29,12.2,12.2,0,0,1,.41,1.49,11.38,11.38,0,0,1,.15,1.7c0,.84,0,1.77.13,2.67.07.71.15,1.35.24,2s.17,1.56.31,2.27c.11.55.17,1.28-.22,1.56a1.71,1.71,0,0,1-.41.16s-.26,0-.25.08.48,0,.61,0c.28,0,.57,0,.67-.1a.94.94,0,0,0,.13-.51,16.63,16.63,0,0,0-.54-2.6c-.09-.6-.16-1.37-.2-2.07a6.21,6.21,0,0,1-.08-1.26,35.18,35.18,0,0,0,.93,4.93s0,.23.13.13,0-.23,0-.22c-.09-.47-.28-1.37-.33-1.87,0-.17,0-.25-.06-.39-.05-.33-.11-.49.15-.57l.15,0s0,.32.07.45c.12.74.19,1.58.33,2.28A3.18,3.18,0,0,1,66.13,46.92Zm.2-1.53a1.18,1.18,0,0,1-.08-.37c-.07-.42-.18-.78-.24-1.15-.07-.56-.19-1.06-.26-1.56-.11-.84-.16-1.72-.23-2.68a15.74,15.74,0,0,1-.07-2.35c0-.39.22-.44.38-.68.05-.08.09-.33.15-.41s.13,0,.19-.07.11-.18.18-.17,0,0,0,0a5.5,5.5,0,0,1,.82,2.44c.15.8.15,1.67.22,2.55a15.37,15.37,0,0,0,1.06,4.49c.06.13-.13,0-.21,0l-.25,0a9.71,9.71,0,0,0-1.5-.09C66.45,45.37,66.4,45.45,66.33,45.39ZM68.84,47c-.66-.06-1.16-.11-1.86-.14a2.67,2.67,0,0,1-.37,0s0-.16,0-.19a2.74,2.74,0,0,1-.13-.44c0-.05.48,0,.48,0,.42,0,1,.05,1.46.1a3.1,3.1,0,0,1,.51,0c.09,0,.22.28.32.4l.32.37A3.68,3.68,0,0,1,68.84,47Zm1.92.48a3.52,3.52,0,0,1-.93-.68,5,5,0,0,1-1.28-1.93c-.82-2.19-.87-5.05-1.2-7.57-.08-.61-.27-1.21-.34-1.86,0,0,0,0,0,0a4.5,4.5,0,0,1,.23.56c.16.59.33,1.31.46,2,0,.26.06.51.09.76,0,.08,0,.17,0,.25s0,.36,0,.51c.06.36.08.79.11,1.23a6.57,6.57,0,0,0,.11.78.82.82,0,0,0,.09.22s0-.12,0-.1c-.06-.53-.12-1.07-.14-1.54,0-.19,0-.4,0-.61s-.06-.7-.08-1c-.07-.83-.21-1.61-.21-2.44,0-.42.1,0,.17.19s.12.28.15.39a3.42,3.42,0,0,1,0,.41c.19,1.2.16,2.71.34,4,.11.73.27,1.28.39,1.95a9.1,9.1,0,0,0,.21,1,6.41,6.41,0,0,0,.26.78,5.82,5.82,0,0,0,1.22,1.81l.17.16.15.12a3.23,3.23,0,0,0,.78.45,12.93,12.93,0,0,0,3.06.8A10.78,10.78,0,0,1,70.76,47.44Zm2.33-.19a6.68,6.68,0,0,1-.65-.16,3.84,3.84,0,0,1-2.12-1.39C70,45.2,70,45.15,70,45s0,0,0,0a4.88,4.88,0,0,0,2.65,1.79,11.71,11.71,0,0,1,2.12.61A9,9,0,0,1,73.09,47.25Zm1.73.8Zm.58-.57c-.07,0-.43-.2-.25-.18s.48.09.78.12l2,.21C77.41,47.58,75.78,47.6,75.39,47.48Z"/><path class="cls-1" d="M26.35,18.31c.12,0,.41,0,.41.23s0,.43-.25.35S26.22,18.33,26.35,18.31Z"/><path class="cls-1" d="M54.49,18.31c-.12,0-.41,0-.41.23s0,.43.24.35S54.62,18.33,54.49,18.31Z"/><path class="cls-1" d="M42.94,16.93c-.08-.12-.53.61-.47,1.25-.13-.48-1.33-.32-.68.72.22.22-.05-.64.33-.51s.2.33.09.35-.2.16,0,.34-.65.45-1.08.19-.6-.67-.47-.72.36.15.65.44a7.51,7.51,0,0,0,0-1.21c0-.14-.71.48-.71.39,0-.37.6-.82.59-.84s-.18,0-.18,0c0-.26.06-.78.06-.79a1.35,1.35,0,0,1,1.25-.39c.73.13.61.13.67.09A2.42,2.42,0,0,1,44.69,16c.12,0,.41.15.44.28a3.29,3.29,0,0,1-.3,1.5c-.06.14-.18,0-.44,0,0,0,.37.84.38.89s-.09.11-.15,0a6.2,6.2,0,0,1-.42-.58c0-.07-.27,1-.37,1.21s.68-.27.79-.23-.31.69-.94.56-.72-.49-.62-.47.27-.23.08-.31,0-.36.22-.31c.41.08,0,.71.09.65,1-.63,0-1.42-.38-1A1.4,1.4,0,0,0,42.94,16.93Z"/><path class="cls-1" d="M37.91,16.93c.08-.12.53.61.47,1.25.13-.48,1.33-.32.68.72-.23.22,0-.64-.33-.51s-.2.33-.09.35.19.16-.05.34.65.45,1.08.19.6-.67.47-.72-.36.15-.65.44a7.47,7.47,0,0,1,0-1.21c0-.14.71.48.71.39,0-.37-.6-.82-.59-.84s.18,0,.18,0c0-.26-.06-.78-.06-.79a1.35,1.35,0,0,0-1.25-.39c-.73.13-.61.13-.67.09A2.4,2.4,0,0,0,36,16c-.13,0-.29.13-.32.25a3.27,3.27,0,0,0,.3,1.5c.06.14.18,0,.43,0,0,0-.37.84-.38.89s.09.11.15,0a5.79,5.79,0,0,0,.42-.58c.05-.07.27,1,.37,1.21s-.68-.27-.79-.23.31.69.94.56.72-.49.62-.47-.27-.23-.07-.31,0-.36-.22-.31c-.41.08,0,.71-.09.65-1-.63,0-1.42.38-1A1.4,1.4,0,0,1,37.91,16.93Z"/><path class="cls-1" d="M36.38,20.89A5.37,5.37,0,0,0,36,19.25Z"/><path class="cls-1" d="M43.95,20.27l.57.44.22-.32L44.62,20Z"/><path class="cls-1" d="M38.86,20.13c0,.15-.2.29-.48.31s-.51-.08-.52-.23.2-.29.48-.31S38.85,20,38.86,20.13Z"/><path class="cls-1" d="M36.14,20.39l.22.32.57-.44L36.26,20Z"/><path class="cls-1" d="M37.43,19.22a.72.72,0,0,1-.49-.62.59.59,0,0,1,.54-.58.4.4,0,0,1,.21.06,1.47,1.47,0,0,1,0-.34,1.9,1.9,0,0,1,.23-.88l0-.06,0,.05A1.7,1.7,0,0,1,38.45,18v0a.41.41,0,0,1,.3-.12.6.6,0,0,1,.58.58A.78.78,0,0,1,39,19l-.12.1,0-.15a1.16,1.16,0,0,0,0-.26c0-.15,0-.27-.16-.29h0a.16.16,0,0,0-.17.15.31.31,0,0,0,0,.12l-.09,0a.4.4,0,0,1,0-.16.26.26,0,0,1,.27-.24h0c.2,0,.25.23.25.39a1.06,1.06,0,0,1,0,.14.61.61,0,0,0,.2-.42.51.51,0,0,0-.48-.48.34.34,0,0,0-.33.26v0s0,0,0,0l0,0a0,0,0,0,1,0,0s0,0,0,0v-.06a.88.88,0,0,0,0-.18,1.6,1.6,0,0,0-.4-1,1.74,1.74,0,0,0-.19.76,1.14,1.14,0,0,0,.11.51l0,0h0s0,0,0,0a.05.05,0,0,1,0,0h-.09a.35.35,0,0,0-.3-.18.43.43,0,0,0-.3.15.5.5,0,0,0-.14.34.56.56,0,0,0,.31.47.86.86,0,0,1-.06-.29.28.28,0,0,1,.17-.28l.1,0a.27.27,0,0,1,.17.06.25.25,0,0,1,.09.21.43.43,0,0,1,0,.08l-.1,0a.35.35,0,0,0,0-.07.15.15,0,0,0-.16-.17h-.06a.18.18,0,0,0-.11.19.75.75,0,0,0,.06.25,1.08,1.08,0,0,0,.06.13h0l.07.13Z"/><path class="cls-1" d="M37.57,19a.19.19,0,0,1,0,0,.22.22,0,0,1,.2-.22l.75-.09h0a.22.22,0,0,1,.22.19v0a.22.22,0,0,1-.2.22l-.75.09h0A.22.22,0,0,1,37.57,19Zm.22.09h0l.75-.09a.12.12,0,0,0,.11-.12h0a.12.12,0,0,0-.13-.1h0l-.75.09a.12.12,0,0,0-.11.12h0A.12.12,0,0,0,37.8,19.1Z"/><path class="cls-1" d="M35.61,16.53a1.38,1.38,0,0,1,.51-1.14,1.43,1.43,0,0,1,.85-.3h0a2.27,2.27,0,0,1,1.21.39,2.71,2.71,0,0,0,1.37.39V16a2.82,2.82,0,0,1-1.43-.41A2.14,2.14,0,0,0,37,15.24h0a1.3,1.3,0,0,0-.76.27,1.23,1.23,0,0,0-.46,1,3.21,3.21,0,0,0,.32,1.28l-.13.06A3.37,3.37,0,0,1,35.61,16.53Z"/><path class="cls-1" d="M35.08,16.36a1.63,1.63,0,0,1,.68-1.42,2.15,2.15,0,0,1,1.2-.35h0a2.16,2.16,0,0,1,1.26.34,1.81,1.81,0,0,0,1.09.33v.1A1.92,1.92,0,0,1,38.2,15,2.05,2.05,0,0,0,37,14.68h0a1.65,1.65,0,0,0-1.78,1.68A4.25,4.25,0,0,0,35.57,18l-.09,0A4.36,4.36,0,0,1,35.08,16.36Z"/><path class="cls-1" d="M40,16.17a5.54,5.54,0,0,0-.32-1.09h-.33a7,7,0,0,1,.38,1.07,7.25,7.25,0,0,1,.14,1.15h-.1a7.27,7.27,0,0,0-.13-1.13,7.28,7.28,0,0,0-.41-1.12l0-.07h.55v0a5.64,5.64,0,0,1,.34,1.14c.07.51.11,1.15.11,1.15h-.1S40,16.67,40,16.17Z"/><path class="cls-1" d="M36.14,19.08l.09,0a.83.83,0,0,0,.81.52h0a.89.89,0,0,0,.76-.44l.09,0a1,1,0,0,1-.84.5H37A.93.93,0,0,1,36.14,19.08Z"/><path class="cls-1" d="M38.51,19.1l.07-.06a.88.88,0,0,0,.66.27h.11a.81.81,0,0,0,.78-.73.63.63,0,0,0,0-.06h.1s0,.05,0,.07a.9.9,0,0,1-.86.83h-.12A1,1,0,0,1,38.51,19.1Z"/><path class="cls-1" d="M36.27,20.63h.15l0,.28H36.3C36.29,20.84,36.28,20.69,36.27,20.63Z"/><path class="cls-1" d="M36,18.67a2.52,2.52,0,0,1,.32-.87l-.92.28,0-.09,1.15-.34-.06.11s-.09.16-.18.35a1.67,1.67,0,0,0-.18.57.19.19,0,0,0,0,.06l-.09,0A.33.33,0,0,1,36,18.67Z"/><path class="cls-1" d="M37,19.36l-.28-.14a1.33,1.33,0,0,0-.46-.13h-.05l0-.09h.08a2,2,0,0,1,.68.23l-.32-1.05-.14.22c-.11.17-.24.34-.38.38h0l0-.09c.08,0,.22-.19.33-.35s.19-.31.19-.31l.06-.1.45,1.5Z"/><path class="cls-1" d="M36.15,19.89l.13-.53.06.12c.06.13.35.25.72.25h.14c.46,0,.82-.24.84-.4l0-.13.21.34.13-.42,0,.13c.05.15.31.27.65.27l.32,0c.45-.08.79-.32.81-.53l0-.21.2.68-.09,0-.1-.34a1.25,1.25,0,0,1-.84.47,1.81,1.81,0,0,1-.34,0,.9.9,0,0,1-.69-.23l-.12.38-.2-.33a1.17,1.17,0,0,1-.89.38h-.15a1.12,1.12,0,0,1-.75-.21l-.07.29Z"/><path class="cls-1" d="M37.82,20.19h0c0-.2.25-.32.53-.34h0c.26,0,.5.11.52.3h0c0,.2-.25.32-.53.34h0C38.08,20.49,37.84,20.39,37.82,20.19Zm.21.13a.66.66,0,0,0,.3.07h0a.71.71,0,0,0,.32-.09.2.2,0,0,0,.12-.15h0a.18.18,0,0,0-.11-.14.65.65,0,0,0-.3-.06h0A.7.7,0,0,0,38,20c-.08,0-.12.11-.12.15h0S38,20.29,38,20.33Z"/><path class="cls-1" d="M36.08,20.39v0l.25.37.68-.53-.81-.31Zm.11,0,.09-.31.55.21-.46.36Z"/><path class="cls-1" d="M36.12,11.34c0-.16.19-.25.16-.51,0-.08,0-.2,0-.24a.52.52,0,0,1,.08-.34s.06-.21.08-.14l.12.3a.8.8,0,0,1,0,.54c0,.07-.21.31-.21.43"/><path class="cls-1" d="M35.42,11.48a.78.78,0,0,0,.16-.43,3.78,3.78,0,0,0-.07-.5,1.23,1.23,0,0,1,0-.51s.09-.19.12-.08a2.14,2.14,0,0,0,.17.51.53.53,0,0,1,0,.46,2.84,2.84,0,0,0-.21.54"/><path class="cls-1" d="M34.77,11.83a3.83,3.83,0,0,0,0-1.1c0-.06-.35-.36-.36-.41a.23.23,0,0,0-.07-.12s.06,0,.14,0a.74.74,0,0,1,.63.41,1,1,0,0,1,0,.48,5.56,5.56,0,0,1-.07.57c0,.06,0,.15-.06.2"/><path class="cls-1" d="M33.95,12.47c-.07.18,0-.79,0-1a1.17,1.17,0,0,0-.09-.38c0-.1,0-.18-.19-.26s-.13-.16-.2-.19.12,0,.19,0a.61.61,0,0,1,.6.47,2.24,2.24,0,0,1,0,.48s0,.1,0,.15-.05.59-.07.68S34,12.35,33.95,12.47Z"/><path class="cls-1" d="M33.58,13a6.92,6.92,0,0,1-.15-.72c0-.36-.09-1.32-.94-1.23-.23,0-.37.2-.3.25s.07-.15.38,0a2.54,2.54,0,0,1,.64,1s.15.63.17.75"/><path class="cls-1" d="M33,14.38a4.53,4.53,0,0,1-.22-.53,1.84,1.84,0,0,0-.36-.65c-.24-.19-.39-.84-.75-.89-.08,0-.38,0-.28,0a.69.69,0,0,1,.86,0,1.86,1.86,0,0,1,.72,1.29c0,.06.07.49.2.56"/><path class="cls-1" d="M36.95,11.28a.57.57,0,0,0,.34-.57,1.63,1.63,0,0,0-.13-.37s-.09,0-.12.09a1.05,1.05,0,0,0-.07.49s-.2.18-.21.29"/><path class="cls-1" d="M36.12,21.63a1.63,1.63,0,0,1-.15-.16c-.7-.7-1.73-2.78-2-2.84s-.39-.3-.39-.34a.3.3,0,0,0,0-.12s.2-.22.24-.21.14,0,.1-.05c-.19-.2-.49-1.22-.59-1.28-.37-.22-.31-.51-.3-.55s.17-.11.24-.15.07,0,.09,0,.11.1.1,0a5.94,5.94,0,0,1-.11-1.25c-.39-.11-.36-.28-.36-.36a.5.5,0,0,1,0-.17c.06-.1.1-.12.14-.13a.26.26,0,0,1,.29.13s.09.06.08,0a2.79,2.79,0,0,1,.05-.5c0-.05,0-.26-.07-.27s-.15-.25-.15-.3,0-.11,0-.14a.26.26,0,0,1,.16-.06c.15,0,.17.34.16.37s0,0,.06.06.07,0,.08,0,.18-.47.16-.51c-.11-.23-.11-.46-.06-.49a.23.23,0,0,1,.12,0c.07,0,0,0,.11,0s.07.18.07.22,0,0,0,0,.34-.32.33-.37,0-.26,0-.29,0-.06,0-.1.22-.09.24,0,0,.27,0,.28.3-.19.37-.25,0-.19,0-.33.18-.08.29-.09,0,.21,0,.27.18,0,.27-.08A.33.33,0,0,0,36,11.4c0-.08.15,0,.26,0s0,.17,0,.23.2,0,.3-.11a.28.28,0,0,0,.14-.2c0-.07.06-.12.2-.07s0,.15,0,.18.26.07.3,0a.19.19,0,0,1,.23-.11c.13,0,0,.17,0,.18.54.07.64.25.46.18a3.25,3.25,0,0,0-1.31,0c-4.8,1.35-2.17,7.08-.18,9.26a.17.17,0,0,0-.17.1c0,.11-.21.33-.16.42S36.14,21.67,36.12,21.63Z"/><path class="cls-1" d="M36.93,11.28h0Z"/><path class="cls-1" d="M31.17,18.33c0,.07,0,.15,0,.27S31.17,18.43,31.17,18.33Zm0-.18c0-.07,0-.12,0-.17A1.31,1.31,0,0,0,31.18,18.15Zm-.54,0s0,0,0,0a1.47,1.47,0,0,0,.13.3A.76.76,0,0,1,30.64,18.13Zm.65-.43s0,0,0,0l0,.09,0-.07Zm.06,1.82-.15,0Zm.65.1-.08,0a.31.31,0,0,0,.18,0,.25.25,0,0,0,.11,0A.36.36,0,0,1,32,19.62Zm-1.15-.23a.23.23,0,0,0,.18.16h.05A.28.28,0,0,1,30.85,19.39Zm2.48-2.33c-.06,0-.35,0-.39,0a.59.59,0,0,0-.44,0c-.12.05-.34.21-.47.89,0,.06-.15.05-.42.43l0,0h0A1.49,1.49,0,0,1,32,18a1.32,1.32,0,0,1-.18.59c0,.06-.06.08,0,.06a1.72,1.72,0,0,1,.58-.39c.06,0-.06.14-.09.17a1.79,1.79,0,0,0-.29.81c0,.42.26.31.28.31a1.16,1.16,0,0,0,.34-.88,2.55,2.55,0,0,1,.33-1.37,3.83,3.83,0,0,1,.64.83l.17-.16C33.72,17.9,33.63,17.21,33.34,17.06Zm.21.7c-.13,0-.48-.4-.58-.47s.19-.23.27-.23c.26,0,.31.31.32.4S33.58,17.76,33.55,17.75Z"/><path class="cls-1" d="M31.66,16.46l-.38,0A1.81,1.81,0,0,0,31.66,16.46Zm-.53-.05a.16.16,0,0,0,.13.08A.17.17,0,0,1,31.13,16.41ZM32.27,15c-.07,0,0-.35.2-.45a.14.14,0,0,1,.09,0h-.11a1.53,1.53,0,0,1-.37,0,.26.26,0,0,0-.34,0,1.22,1.22,0,0,0-.45.89c0,.1,0,.37-.12.23l0,0a1.36,1.36,0,0,1,.21.37,1.42,1.42,0,0,1,.07-.48s.1-.28.1-.23a.46.46,0,0,0,.11.24c.12.11.14.45.14.37s.2-.22.22-.28.07-.23.11-.23a1.27,1.27,0,0,1,.06.35c0,.28-.18.38-.2.48s.23.11.19.15l-.09,0a.26.26,0,0,0,.19-.18,5.45,5.45,0,0,0,0-1.25S32.27,15,32.27,15Zm.52-.33a.57.57,0,0,1,.1.15s.24.91.16.88a2.1,2.1,0,0,1-.61-.52l0-.07a1.46,1.46,0,0,0,.24.55,5.7,5.7,0,0,0,.37.44l.31-.13A3.15,3.15,0,0,0,32.79,14.65ZM32,16.45h0Zm0,0h0Z"/><path class="cls-1" d="M36.12,11.37c0-.18.2-.27.17-.53,0-.08,0-.21,0-.24s.12-.55.15-.48l.12.3a.79.79,0,0,1,0,.54c0,.07-.21.31-.21.43"/><path class="cls-1" d="M33.58,13a6.92,6.92,0,0,1-.15-.72c0-.36-.09-1.32-.94-1.23-.23,0-.37.2-.3.25s.16-.18.38,0A3.15,3.15,0,0,1,33.39,13"/><path class="cls-1" d="M33,14.37a4.09,4.09,0,0,1-.22-.52,1.83,1.83,0,0,0-.36-.65c-.24-.19-.39-.84-.75-.89-.08,0-.38,0-.28,0a.69.69,0,0,1,.86,0,1.86,1.86,0,0,1,.72,1.29c0,.06.06.48.2.56"/><path class="cls-1" d="M31.25,16.54c-.15,0-.21-.15-.23-.28a2.24,2.24,0,0,1,0-.33.76.76,0,0,0-.11-.37.2.2,0,0,1,0-.09.06.06,0,0,1,0,0l0,0c.06,0,.11.05.18.1l.15.13h0v-.05a1.6,1.6,0,0,0,0-.16,1.26,1.26,0,0,1,.46-.92.33.33,0,0,1,.23-.11.28.28,0,0,1,.16,0h.38c.33,0,.54.39.68.76a5.34,5.34,0,0,1,.23.79h0l-.09,0a5.72,5.72,0,0,0-.23-.78c-.14-.37-.35-.71-.59-.7h-.36l-.07,0a.21.21,0,0,0-.11,0,.24.24,0,0,0-.17.08,1.17,1.17,0,0,0-.44.85.8.8,0,0,1,0,.26.09.09,0,0,1-.08.06.13.13,0,0,1-.09-.06L31,15.58a.85.85,0,0,1,.09.36,2.08,2.08,0,0,0,0,.31c0,.12.07.2.14.2h.07c.23,0,.31,0,.53,0H32a.22.22,0,0,0,.22-.16,1.6,1.6,0,0,0,0-.44c0-.32,0-.71,0-.79h0a.07.07,0,0,1,0,0l0,0a.23.23,0,0,1,.16.11,1.77,1.77,0,0,0,.25.58c.06.09.39.47.44.52l-.07.07c-.06-.06-.38-.43-.45-.53a1.71,1.71,0,0,1-.25-.59l0,0c0,.14,0,.47,0,.75a1.78,1.78,0,0,1,0,.47.32.32,0,0,1-.31.23h-.13c-.2,0-.29,0-.53,0Zm-.36-1h0Z"/><path class="cls-1" d="M31.88,19.62a.77.77,0,0,0-.32-.07h0c-.17,0-.2.06-.35.06H31a.32.32,0,0,1-.25-.36,2.74,2.74,0,0,1,.05-.4h0a.59.59,0,0,0,0-.2c-.06-.11-.16-.38-.2-.44a.17.17,0,0,1,0-.07.06.06,0,0,1,0,0l0,0c.06,0,.09,0,.14.08l.12.1c.1.11.17.2.22.26h0c0-.12,0-.19,0-.29a2.83,2.83,0,0,1,.08-.48.35.35,0,0,1,0-.07.06.06,0,0,1,.05,0c.05,0,.05,0,.07,0l0,.08c0,.06.05.14.08.22s.1.32.1.35v0h0a1.49,1.49,0,0,1,.28-.32l.12-.09c.13-.68.37-.86.5-.92a.61.61,0,0,1,.26-.06A.6.6,0,0,1,33,17h.25a.34.34,0,0,1,.15,0c.25.14.35.58.41.82l0,.14-.08,0a.89.89,0,0,1,0-.17c0-.08,0-.18-.08-.28a.84.84,0,0,0-.28-.48h-.39a.49.49,0,0,0-.18,0,.53.53,0,0,0-.22,0c-.1.05-.31.19-.44.85,0,.07-.07.07-.13.12a1.32,1.32,0,0,0-.29.32l0,0a.09.09,0,0,1-.07,0c-.08,0-.07-.07-.09-.14s0-.16-.09-.31-.06-.19-.09-.25l0,.1a2.63,2.63,0,0,0-.05.33c0,.1,0,.17,0,.28s0,.07,0,.12h0v0a.06.06,0,0,1-.05,0,.07.07,0,0,1,0,0l0,0-.05-.07a3.06,3.06,0,0,0-.23-.27l-.11-.1c0,.11.12.29.16.36a.62.62,0,0,1,.06.25v0a2.84,2.84,0,0,0,0,.38c0,.14,0,.24.17.26h.11c.11,0,.15-.06.35-.06h0a.83.83,0,0,1,.36.08.34.34,0,0,0,.17.05h0s.42-.14.46-.92a3.27,3.27,0,0,1,.31-1.37s0,0,.07,0h0a4,4,0,0,1,.68.88l-.08.05a5,5,0,0,0-.62-.83l0,.06a2.11,2.11,0,0,0-.1.27,4.28,4.28,0,0,0-.16,1c0,.82-.44,1-.55,1h0A.41.41,0,0,1,31.88,19.62Z"/><path class="cls-1" d="M32,19.5a.45.45,0,0,1,0-.22.47.47,0,0,1,0-.06,1.71,1.71,0,0,1,.29-.84l.05,0-.17.1a3.07,3.07,0,0,0-.27.23s0,0-.08,0l0,0a0,0,0,0,1,0,0,.15.15,0,0,1,0-.07A1.39,1.39,0,0,0,32,18h.1a1.32,1.32,0,0,1-.14.49l.15-.12a.86.86,0,0,1,.32-.15h0a.06.06,0,0,1,0,.05c0,.07-.05.1-.15.19a1.73,1.73,0,0,0-.25.77s0,0,0,0a.38.38,0,0,0,0,.17.1.1,0,0,0,.09.06.25.25,0,0,0,.12,0l0,.08a.33.33,0,0,1-.16,0h0A.19.19,0,0,1,32,19.5Z"/><path class="cls-1" d="M31.92,16.29a.19.19,0,0,1,0-.1.8.8,0,0,0,.18-.47.85.85,0,0,0,0-.2l0,.13c-.07.12-.22.14-.22.31h0s0,0,0,0,0,0,0,0h0v0s0-.06,0-.1a.41.41,0,0,0-.08-.2.71.71,0,0,1-.12-.2.63.63,0,0,1-.07.15,1,1,0,0,0,0,.34,1.17,1.17,0,0,0,0,.13h0v0a0,0,0,0,1,0,0s0,0,0,0h0v0l0-.12a.73.73,0,0,0-.15-.24l.06-.07a.66.66,0,0,1,.14.21.64.64,0,0,1,.06-.29s.07-.21.1-.26,0,0,.05,0a.06.06,0,0,1,.05,0,.09.09,0,0,1,0,0,.67.67,0,0,0,.12.27.44.44,0,0,1,.1.21c.07-.08.15-.12.16-.15s0-.14.08-.2a.08.08,0,0,1,.07-.05c.06,0,.06,0,.07.07a1.06,1.06,0,0,1,0,.29.89.89,0,0,1-.2.52.09.09,0,0,0,0,0,.08.08,0,0,0,.08.07.13.13,0,0,0,.08,0l.07.07a.23.23,0,0,1-.15.06A.17.17,0,0,1,31.92,16.29ZM31.83,16s0,0,0,0Z"/><path class="cls-1" d="M32.21,15c0-.41.26-.5.34-.5v.1s-.24,0-.24.4a1.19,1.19,0,0,0,0,.18h-.1A1.24,1.24,0,0,1,32.21,15Z"/><path class="cls-1" d="M32.82,14.75l.09,0a3.57,3.57,0,0,1,.24,1.3H33A3.4,3.4,0,0,0,32.82,14.75Z"/><path class="cls-1" d="M32.35,15.08l.09-.05c.11.2.49.6.65.62l0,.1C32.83,15.7,32.48,15.3,32.35,15.08Z"/><path class="cls-1" d="M32.77,17.51c.12-.32.24-.5.48-.52v.1c-.17,0-.27.14-.39.46Z"/><path class="cls-1" d="M33.51,17.94c0-.1,0-.21,0-.32a.86.86,0,0,0-.06-.38l.09,0a1,1,0,0,1,.07.42c0,.12,0,.23,0,.32a.36.36,0,0,0,0,.15l-.08.05A.4.4,0,0,1,33.51,17.94Z"/><path class="cls-1" d="M33.24,17.58a3.94,3.94,0,0,0-.31-.28l.05-.08a3.45,3.45,0,0,1,.33.29.66.66,0,0,0,.26.18h0v.1h0C33.46,17.79,33.36,17.69,33.24,17.58Z"/><path class="cls-1" d="M31.93,17h0v-.1h0s0,0,0,0h0a1,1,0,0,0-.08-.27.17.17,0,0,1,0-.09.19.19,0,0,1,0-.06l.09,0a.18.18,0,0,0,0,0,.08.08,0,0,0,0,0,.9.9,0,0,1,.1.31.11.11,0,0,1,0,.07.15.15,0,0,1-.13.08Z"/><path class="cls-1" d="M31.06,17A.16.16,0,0,1,31,17l0-.08h.08v0a1,1,0,0,0,0-.13s0-.09,0-.1v0a.22.22,0,0,1,0-.12l.08.06a.15.15,0,0,0,0,.07h0s0,.06,0,.11a1,1,0,0,1,0,.15.19.19,0,0,1-.06.13.18.18,0,0,1-.1,0Z"/><path class="cls-1" d="M31.75,16.91h0v0a.34.34,0,0,0,0-.07.39.39,0,0,0,0-.18.3.3,0,0,1,0-.13.2.2,0,0,1,0,0l.09,0h0a.24.24,0,0,0,0,.08.54.54,0,0,1,.05.23.52.52,0,0,1,0,.08.18.18,0,0,1,0,.1.13.13,0,0,1-.1,0Z"/><path class="cls-1" d="M31.38,16.94s0,0,0-.07a.55.55,0,0,0,0-.15.66.66,0,0,0,0-.21l.09,0a.69.69,0,0,1,0,.24.67.67,0,0,1,0,.17c0,.07,0,.14-.12.14Z"/><path class="cls-1" d="M31.19,16.94s0,0,0-.07a.55.55,0,0,0,0-.2.66.66,0,0,0,0-.15l.09,0a.77.77,0,0,1,0,.17.63.63,0,0,1,0,.24c0,.06-.06.13-.13.13Z"/><path class="cls-1" d="M31.59,17.85a.21.21,0,0,1-.1-.2h.1c0,.07,0,.1,0,.12h0v0a.47.47,0,0,0,0-.13.58.58,0,0,0,0-.24.49.49,0,0,1-.06-.25.34.34,0,0,1,0-.16.15.15,0,0,0,0-.08.51.51,0,0,0,0-.16.72.72,0,0,1-.07-.23.08.08,0,0,1,0,0l.06,0h0a.89.89,0,0,0,.06.18.54.54,0,0,1,0,.21.28.28,0,0,1,0,.13.28.28,0,0,0,0,.11.45.45,0,0,0,0,.2.61.61,0,0,1,.06.29.56.56,0,0,1,0,.16.12.12,0,0,1-.11.1Z"/><path class="cls-1" d="M31,19.63v-.1h0s.09,0,.12-.13a.8.8,0,0,0,0-.27s0,0,0-.06l.09,0a.39.39,0,0,1,0,.08.91.91,0,0,1-.05.3c0,.1-.1.19-.21.19Z"/><path class="cls-1" d="M30.85,20l0-.1h0s.07,0,.1-.11a.66.66,0,0,0,0-.21.12.12,0,0,0,0,0h.1s0,0,0,0a.75.75,0,0,1,0,.25c0,.08-.09.17-.19.17Z"/><path class="cls-1" d="M31.88,19.75a1,1,0,0,1,0-.17l.09,0a.84.84,0,0,0,0,.15c0,.13,0,.26.15.28l0,.1C31.91,20.09,31.87,19.89,31.88,19.75Z"/><path class="cls-1" d="M31.67,19.66a1.1,1.1,0,0,1,0-.16l.09,0a1.12,1.12,0,0,0,0,.13c0,.16,0,.38.13.38l0,.1C31.68,20.09,31.67,19.82,31.67,19.66Z"/><path class="cls-1" d="M31.29,20.08s.08-.05.11-.16a1.38,1.38,0,0,0,0-.31s0-.08,0-.09h0l.09,0a.81.81,0,0,1,0,.11,1.53,1.53,0,0,1,0,.34c0,.11-.08.23-.2.23Z"/><path class="cls-1" d="M31.41,21.06a.15.15,0,0,1,0-.1.56.56,0,0,1,0-.17l.09,0a.4.4,0,0,0,0,.14c0,.05,0,0,0,0l.07,0a.57.57,0,0,0,.12-.41,2.36,2.36,0,0,0-.07-.55,2.45,2.45,0,0,1,0-.42.35.35,0,0,1,0-.08l.09,0h0v0a2.82,2.82,0,0,0,0,.39,2.36,2.36,0,0,1,.08.58.65.65,0,0,1-.15.49.22.22,0,0,1-.13.05h0A.12.12,0,0,1,31.41,21.06Z"/><path class="cls-1" d="M36.93,11.28h0Z"/><path class="cls-1" d="M36.95,11.28a.57.57,0,0,0,.34-.57,1.63,1.63,0,0,0-.13-.37s-.09,0-.12.09a1.05,1.05,0,0,0-.07.49s-.2.18-.21.29"/><path class="cls-1" d="M36.15,19.89l.13-.53.06.12c.06.13.35.25.72.25h.14c.46,0,.82-.24.84-.4l0-.13.21.34.13-.42,0,.14c.05.15.31.27.65.27l.32,0c.45-.08.79-.33.81-.53h.09l.14.48-.09,0-.1-.34a1.25,1.25,0,0,1-.84.47,1.81,1.81,0,0,1-.34,0,.9.9,0,0,1-.69-.23l-.12.38-.2-.33a1.17,1.17,0,0,1-.89.38h-.15a1.11,1.11,0,0,1-.75-.21l-.07.29Z"/><path class="cls-1" d="M34.62,18a.46.46,0,0,1-.11-.3.46.46,0,0,1,.82-.3.46.46,0,0,1-.71.59Zm.15-.54a.31.31,0,0,0-.11.24.3.3,0,0,0,.07.2.31.31,0,0,0,.24.11.32.32,0,0,0,.32-.32.31.31,0,0,0-.07-.2.32.32,0,0,0-.44,0Z"/><path class="cls-1" d="M34.62,18a.46.46,0,0,1-.11-.3.46.46,0,0,1,.82-.3.46.46,0,0,1-.71.59Zm.15-.54a.31.31,0,0,0-.11.24.3.3,0,0,0,.07.2.31.31,0,0,0,.24.11.32.32,0,0,0,.32-.32.31.31,0,0,0-.07-.2.32.32,0,0,0-.44,0Z"/><path class="cls-1" d="M34.41,17.2a.46.46,0,0,1,.35-.76.46.46,0,0,1,.46.46.47.47,0,0,1-.17.36l0-.06,0,.06a.46.46,0,0,1-.65-.06Zm.15-.54a.32.32,0,0,0,.2.56.3.3,0,0,0,.2-.07.31.31,0,0,0,.11-.24.31.31,0,0,0-.32-.31A.3.3,0,0,0,34.57,16.67Z"/><path class="cls-1" d="M34.41,17.2a.46.46,0,0,1,.35-.76.46.46,0,0,1,.46.46.47.47,0,0,1-.17.36l0-.06,0,.06a.46.46,0,0,1-.65-.06Zm.15-.54a.32.32,0,0,0,.2.56.3.3,0,0,0,.2-.07.31.31,0,0,0,.11-.24.31.31,0,0,0-.32-.31A.3.3,0,0,0,34.57,16.67Z"/><path class="cls-1" d="M34.39,16.34a.46.46,0,1,1,.65.06l0-.06,0,.06a.46.46,0,0,1-.65-.06Zm.15-.54a.32.32,0,0,0-.11.24.31.31,0,0,0,.07.2.32.32,0,0,0,.44,0,.32.32,0,0,0,0-.45.32.32,0,0,0-.45,0Z"/><path class="cls-1" d="M34.39,16.34a.46.46,0,1,1,.65.06l0-.06,0,.06a.46.46,0,0,1-.65-.06Zm.15-.54a.32.32,0,0,0-.11.24.31.31,0,0,0,.07.2.32.32,0,0,0,.44,0,.32.32,0,0,0,0-.45.32.32,0,0,0-.45,0Z"/><path class="cls-1" d="M34.63,15.51a.46.46,0,0,1,.35-.76.46.46,0,0,1,.46.46.46.46,0,0,1-.82.3Zm.15-.54a.31.31,0,0,0-.11.24.32.32,0,0,0,.07.2.31.31,0,0,0,.24.11.32.32,0,0,0,.31-.32.3.3,0,0,0-.07-.2.31.31,0,0,0-.44,0Z"/><path class="cls-1" d="M34.63,15.51a.46.46,0,0,1,.35-.76.46.46,0,0,1,.46.46.46.46,0,0,1-.82.3Zm.15-.54a.31.31,0,0,0-.11.24.32.32,0,0,0,.07.2.31.31,0,0,0,.24.11.32.32,0,0,0,.31-.32.3.3,0,0,0-.07-.2.31.31,0,0,0-.44,0Z"/><path class="cls-1" d="M35.23,14.89a.46.46,0,0,1,.06-.65.46.46,0,0,1,.3-.11.46.46,0,0,1,.46.46.46.46,0,0,1-.17.35l0-.06,0,.06a.46.46,0,0,1-.3.11A.46.46,0,0,1,35.23,14.89Zm.15-.54a.31.31,0,0,0,0,.45.31.31,0,0,0,.24.11.3.3,0,0,0,.2-.07.32.32,0,0,0-.41-.48Z"/><path class="cls-1" d="M35.23,14.89a.46.46,0,0,1,.06-.65.46.46,0,0,1,.3-.11.46.46,0,0,1,.46.46.46.46,0,0,1-.17.35l0-.06,0,.06a.46.46,0,0,1-.3.11A.46.46,0,0,1,35.23,14.89Zm.15-.54a.31.31,0,0,0,0,.45.31.31,0,0,0,.24.11.3.3,0,0,0,.2-.07.32.32,0,0,0-.41-.48Z"/><path class="cls-1" d="M36.4,14.73a.47.47,0,0,1-.46-.46.46.46,0,0,1,.82-.3.46.46,0,0,1,.11.3.46.46,0,0,1-.46.46Zm-.2-.7a.31.31,0,0,0,0,.44.31.31,0,0,0,.24.11.33.33,0,0,0,.2-.07.32.32,0,0,0,0-.45.32.32,0,0,0-.24-.11A.31.31,0,0,0,36.19,14Z"/><path class="cls-1" d="M36.4,14.73a.47.47,0,0,1-.46-.46.46.46,0,0,1,.82-.3.46.46,0,0,1,.11.3.46.46,0,0,1-.46.46Zm-.2-.7a.31.31,0,0,0,0,.44.31.31,0,0,0,.24.11.33.33,0,0,0,.2-.07.32.32,0,0,0,0-.45.32.32,0,0,0-.24-.11A.31.31,0,0,0,36.19,14Z"/><path class="cls-1" d="M37.25,14.68a.46.46,0,0,1-.46-.46.47.47,0,0,1,.17-.36.46.46,0,0,1,.3-.11.45.45,0,0,1,.35.17.46.46,0,0,1,.11.3.47.47,0,0,1-.46.46ZM37,14a.31.31,0,0,0-.11.24.31.31,0,0,0,.07.2.32.32,0,0,0,.24.11.32.32,0,0,0,.24-.52.32.32,0,0,0-.24-.11A.32.32,0,0,0,37,14Z"/><path class="cls-1" d="M37.25,14.68a.46.46,0,0,1-.46-.46.47.47,0,0,1,.17-.36.46.46,0,0,1,.3-.11.45.45,0,0,1,.35.17.46.46,0,0,1,.11.3.47.47,0,0,1-.46.46ZM37,14a.31.31,0,0,0-.11.24.31.31,0,0,0,.07.2.32.32,0,0,0,.24.11.32.32,0,0,0,.24-.52.32.32,0,0,0-.24-.11A.32.32,0,0,0,37,14Z"/><path class="cls-1" d="M37.74,14.72a.46.46,0,0,1,.71-.6.46.46,0,0,1-.71.6Zm.15-.54a.32.32,0,0,0-.11.24.33.33,0,0,0,.07.2.31.31,0,0,0,.24.11.31.31,0,0,0,.2-.07.31.31,0,0,0,.11-.24.31.31,0,0,0-.32-.32A.31.31,0,0,0,37.89,14.18Z"/><path class="cls-1" d="M37.74,14.72a.46.46,0,0,1,.71-.6.46.46,0,0,1-.71.6Zm.15-.54a.32.32,0,0,0-.11.24.33.33,0,0,0,.07.2.31.31,0,0,0,.24.11.31.31,0,0,0,.2-.07.31.31,0,0,0,.11-.24.31.31,0,0,0-.32-.32A.31.31,0,0,0,37.89,14.18Z"/><path class="cls-1" d="M38.87,15.27a.46.46,0,1,1,.46-.46.47.47,0,0,1-.16.35l0-.06,0,.06a.46.46,0,0,1-.3.11Zm-.2-.7a.31.31,0,0,0-.11.24.31.31,0,0,0,.07.2.31.31,0,0,0,.24.11.32.32,0,0,0,.2-.08.31.31,0,0,0,.11-.24.32.32,0,0,0-.32-.32A.31.31,0,0,0,38.67,14.56Z"/><path class="cls-1" d="M38.87,15.27a.46.46,0,1,1,.46-.46.47.47,0,0,1-.16.35l0-.06,0,.06a.46.46,0,0,1-.3.11Zm-.2-.7a.31.31,0,0,0-.11.24.31.31,0,0,0,.07.2.31.31,0,0,0,.24.11.32.32,0,0,0,.2-.08.31.31,0,0,0,.11-.24.32.32,0,0,0-.32-.32A.31.31,0,0,0,38.67,14.56Z"/><path class="cls-1" d="M34.93,17.26c.13-.08.22-.35.25-.22s.22.5,0,.4S34.89,17.28,34.93,17.26Z"/><path class="cls-1" d="M34.82,16.41c.13,0,.33-.28.32-.15s.11.52-.07.4S34.75,16.43,34.82,16.41Z"/><path class="cls-1" d="M34.88,15.59c.14,0,.41-.08.39,0s-.13.4-.18.32S34.84,15.59,34.88,15.59Z"/><path class="cls-1" d="M35.35,14.91c.12,0,.4.06.36.09s-.35.37-.33.29S35.3,14.91,35.35,14.91Z"/><path class="cls-1" d="M36,14.46c.11,0,.2.22.31.21s-.32.16-.4.22S36,14.45,36,14.46Z"/><path class="cls-1" d="M36.59,14.61c.1-.07.21-.38.28-.28s.27.32.12.3S36.52,14.65,36.59,14.61Z"/><path class="cls-1" d="M37.32,14.62c.11,0,.34-.34.36-.24s.17.38.05.34S37.23,14.62,37.32,14.62Z"/><path class="cls-1" d="M38.07,14.83c.12,0,.46-.24.44-.16s.07.47,0,.43S38,14.81,38.07,14.83Z"/><path class="cls-1" d="M38.93,15.22c.09,0,.26-.2.3-.13s.13.21,0,.2S38.87,15.23,38.93,15.22Z"/><path class="cls-1" d="M41.67,15.07c.12,0,.29.14.19.17s-.38.08-.33,0S41.63,15.06,41.67,15.07Z"/><path class="cls-1" d="M42.41,14.65c.14.08.45.17.33.24s-.49.32-.45.22A3.77,3.77,0,0,1,42.41,14.65Z"/><path class="cls-1" d="M43.08,14.69c0-.11.07-.46.16-.35s.31.29.16.31S43.07,14.74,43.08,14.69Z"/><path class="cls-1" d="M43.78,14.6c.08,0,.24-.39.31-.25s.2.28.08.27S43.71,14.64,43.78,14.6Z"/><path class="cls-1" d="M44.5,14.67c.12,0,.39-.31.39-.13s.08.33,0,.28S44.42,14.68,44.5,14.67Z"/><path class="cls-1" d="M45.16,15c.12,0,.44-.14.4,0s0,.35-.13.28S45.1,15,45.16,15Z"/><path class="cls-1" d="M45.6,15.53c.11,0,.41.07.33.15s-.19.3-.23.23S45.56,15.51,45.6,15.53Z"/><path class="cls-1" d="M45.76,16.26c.1.06.41.18.25.24s-.3.26-.27.16S45.73,16.24,45.76,16.26Z"/><path class="cls-1" d="M45.68,17c.07.11.33.33.22.33s-.38.25-.34.13S45.66,17,45.68,17Z"/><path class="cls-1" d="M44.75,11.37c0-.16-.2-.27-.17-.53,0-.08,0-.2,0-.24a.52.52,0,0,0-.08-.34s-.06-.21-.08-.14l-.12.3a.8.8,0,0,0,0,.54c0,.07.21.31.21.43"/><path class="cls-1" d="M45.44,11.48c0-.08-.16-.16-.15-.42a4,4,0,0,1,.07-.5,1.23,1.23,0,0,0,0-.51s-.09-.19-.12-.08a2.14,2.14,0,0,1-.16.51.53.53,0,0,0,0,.47,2.82,2.82,0,0,1,.2.53"/><path class="cls-1" d="M46.11,11.81a3.77,3.77,0,0,1,0-1.08c0-.06.35-.36.36-.41a.24.24,0,0,1,.07-.12s-.06,0-.14,0a.75.75,0,0,0-.63.41,1,1,0,0,0,0,.48c0,.07,0,.44.07.57s0,.17.07.22"/><path class="cls-1" d="M46.92,12.46c.07.18,0-.78,0-1a1.21,1.21,0,0,1,.09-.38c0-.1,0-.19.19-.26s.13-.16.2-.19-.12,0-.19,0a.6.6,0,0,0-.6.47,2.42,2.42,0,0,0,0,.48,1.42,1.42,0,0,0,0,.15s0,.58.07.67S46.88,12.34,46.92,12.46Z"/><path class="cls-1" d="M47.29,13a7.25,7.25,0,0,0,.15-.72c0-.36.09-1.32.94-1.23.23,0,.37.2.3.25s-.07-.15-.38,0a2.57,2.57,0,0,0-.64,1s-.16.66-.17.77"/><path class="cls-1" d="M47.89,14.38a4.33,4.33,0,0,0,.22-.53,1.84,1.84,0,0,1,.36-.65c.24-.19.39-.84.75-.89.08,0,.38,0,.28,0a.69.69,0,0,0-.86,0,1.85,1.85,0,0,0-.72,1.29c0,.06-.07.49-.2.56"/><path class="cls-1" d="M43.92,11.28a.57.57,0,0,1-.33-.57,1.62,1.62,0,0,1,.13-.37s.09,0,.12.09a1.07,1.07,0,0,1,.07.49s.2.18.21.29"/><path class="cls-1" d="M49.68,18.15a1.33,1.33,0,0,0,0-.17S49.68,18.08,49.68,18.15Zm-.85-.21c-.13-.67-.35-.83-.47-.89a.59.59,0,0,0-.44,0s-.34,0-.39,0c-.29.15-.38.85-.42.92l.17.16a3.74,3.74,0,0,1,.64-.83,2.57,2.57,0,0,1,.33,1.37,1.15,1.15,0,0,0,.34.88s.26.11.28-.31a1.82,1.82,0,0,0-.29-.81s-.15-.19-.09-.17a1.71,1.71,0,0,1,.58.39s0,0,0-.06a1.34,1.34,0,0,1-.18-.59,1.47,1.47,0,0,1,.41.41h0l0,0C49,18,48.84,18,48.83,17.94Zm-.93-.66c-.1.07-.46.45-.58.47s0-.27,0-.3.06-.41.32-.4C47.71,17.06,48,17.21,47.9,17.28Zm1.76,2.27-.15,0Zm0-1c0-.12,0-.2,0-.27C49.7,18.44,49.7,18.57,49.7,18.6Zm-.12-.89,0,.07,0-.09s0,0,0,0Zm.67.42s0,0,0,0a.77.77,0,0,1-.11.31A1.54,1.54,0,0,0,50.25,18.14Zm-1.6,1.45a.24.24,0,0,0,.11,0,.32.32,0,0,0,.18,0l-.08,0A.36.36,0,0,1,48.65,19.59Zm1.13,0h.05a.22.22,0,0,0,.18-.16A.28.28,0,0,1,49.78,19.55Z"/><path class="cls-1" d="M47.81,15.69c-.07,0,.15-.85.16-.88a.62.62,0,0,1,.12-.17,3,3,0,0,0-.54,1.29l.3.16a5.44,5.44,0,0,0,.37-.44,1.5,1.5,0,0,0,.24-.55l0,.07A2.08,2.08,0,0,1,47.81,15.69Zm1.52-.38s.07.19.1.23a1.49,1.49,0,0,1,.07.48,1.4,1.4,0,0,1,.21-.37l0,0c-.12.14-.11-.13-.12-.23a1.22,1.22,0,0,0-.45-.89.26.26,0,0,0-.34,0,1.54,1.54,0,0,1-.37,0H48.3a.14.14,0,0,1,.09,0c.17.1.27.41.2.45s0,0,0,0a5.46,5.46,0,0,0,0,1.25.26.26,0,0,0,.19.18l-.09-.05s.24.09.19-.14-.2-.2-.2-.48a1.24,1.24,0,0,1,.06-.36s.09.17.11.23.22.18.22.28,0-.26.14-.37A.45.45,0,0,0,49.33,15.3Zm.26,1.19-.39,0A1.81,1.81,0,0,0,49.59,16.49Zm-.7,0h0Zm0,0h0Zm.75,0a.16.16,0,0,0,.13-.08A.17.17,0,0,1,49.61,16.49Z"/><path class="cls-1" d="M44.71,21.63a.78.78,0,0,0,.17-.15c.7-.71,1.73-2.78,2-2.84s.39-.3.39-.34a.33.33,0,0,1,0-.12s-.2-.22-.24-.21-.14,0-.1-.05c.19-.2.49-1.22.59-1.28.38-.22.31-.51.3-.55s-.17-.12-.24-.15-.07,0-.09,0-.11.1-.1,0a6,6,0,0,0,.11-1.25c.4-.11.36-.28.36-.35s0-.3-.2-.31-.27.1-.28.13-.09.06-.08,0a3.06,3.06,0,0,0,0-.5c0-.05,0-.27.07-.27s.15-.25.15-.3,0-.11,0-.14A.26.26,0,0,0,47.3,13c-.15,0-.17.34-.16.37s0,0-.05.06-.08,0-.08,0-.18-.47-.16-.51c.11-.23.1-.29.1-.35s0-.26-.25-.15c-.06,0-.09.19-.09.22s0,0,0,0-.33-.32-.33-.37a1.56,1.56,0,0,0,0-.25.46.46,0,0,0,0-.12.17.17,0,0,0-.27,0c0,.06,0,.26,0,.26s-.3-.19-.37-.25,0-.19,0-.32-.18-.08-.29-.09,0,.21,0,.26-.18,0-.27-.08a.34.34,0,0,1-.14-.24c0-.08-.15,0-.26,0s0,.17,0,.23-.2,0-.3-.11a.27.27,0,0,1-.14-.2c0-.06-.06-.11-.2-.06s0,.15,0,.17-.26.07-.3,0a.19.19,0,0,0-.23-.11c-.13,0,0,.17,0,.18-.54.07-.64.25-.45.18a3.27,3.27,0,0,1,1.31,0c4.83,1.36,2.14,7.15.15,9.3,0,0,0,0,.07,0a.21.21,0,0,1,.18.13.75.75,0,0,1,.05.44Z"/><path class="cls-1" d="M49,16.5h-.13a.31.31,0,0,1-.31-.23,1.72,1.72,0,0,1,0-.47c0-.29,0-.61,0-.75l0,0a1.69,1.69,0,0,1-.25.59c-.07.1-.35.42-.41.48l-.07-.07s.34-.38.4-.47a1.74,1.74,0,0,0,.25-.58.23.23,0,0,1,.16-.11l0,0a.07.07,0,0,1,0,0h0c0,.09,0,.47,0,.8a1.7,1.7,0,0,0,0,.44.22.22,0,0,0,.22.16H49c.22,0,.31,0,.53,0h.08c.07,0,.12-.08.14-.2a2.1,2.1,0,0,0,0-.31.86.86,0,0,1,.09-.36h0l-.14.13a.14.14,0,0,1-.09.06.09.09,0,0,1-.08-.06.43.43,0,0,1,0-.09c0-.06,0-.13,0-.17a1.17,1.17,0,0,0-.43-.85.24.24,0,0,0-.17-.08.19.19,0,0,0-.11,0l-.07,0h-.36c-.24,0-.45.34-.59.71a5.9,5.9,0,0,0-.22.79l-.09,0a5.76,5.76,0,0,1,.22-.81c.14-.38.35-.77.68-.78h.38a.3.3,0,0,1,.16,0,.34.34,0,0,1,.24.1,1.27,1.27,0,0,1,.46.92,1,1,0,0,0,0,.2h0l.15-.13c.07-.05.11-.1.18-.1l0,0a.07.07,0,0,1,0,0,.2.2,0,0,1,0,.09.79.79,0,0,0-.11.37,2.09,2.09,0,0,1,0,.33c0,.13-.08.27-.23.28h-.08C49.29,16.54,49.2,16.5,49,16.5Zm-1.43-.43h0Z"/><path class="cls-1" d="M48.77,19.68h0c-.11,0-.51-.2-.55-1a4.28,4.28,0,0,0-.14-.93,1.76,1.76,0,0,0-.14-.37,5.27,5.27,0,0,0-.63.85l-.08-.05a4.27,4.27,0,0,1,.69-.9h0s.05,0,.07,0l0,.08a2.27,2.27,0,0,1,.1.28,4.43,4.43,0,0,1,.16,1c0,.79.42.92.46.92h0a.33.33,0,0,0,.17-.05.86.86,0,0,1,.36-.08h0c.2,0,.25.06.35.06h.11c.13,0,.16-.12.17-.26a2.94,2.94,0,0,0,0-.38s0,0,0,0a.62.62,0,0,1,.06-.25,3.62,3.62,0,0,0,.16-.36h0l-.11.1a4.21,4.21,0,0,0-.29.35.06.06,0,0,1,0,0,.05.05,0,0,1-.05,0,.1.1,0,0,1,0,0h0s0-.08,0-.11,0-.18,0-.28a2.69,2.69,0,0,0-.07-.43h0c0,.06-.05.13-.08.21s-.09.33-.1.34,0,.13-.09.14a.09.09,0,0,1-.07,0l0,0a1.3,1.3,0,0,0-.29-.32c-.06-.05-.11,0-.13-.12-.13-.67-.34-.8-.44-.85a.52.52,0,0,0-.22,0,.51.51,0,0,0-.18,0h-.39c-.18.09-.3.53-.36.78a.48.48,0,0,1-.08.19L47,18a.58.58,0,0,0,.05-.14c0-.08.05-.19.08-.3A.9.9,0,0,1,47.5,17a.35.35,0,0,1,.14,0h.25a.58.58,0,0,1,.22,0,.63.63,0,0,1,.26.06c.13.06.37.24.5.92h0L49,18a1.39,1.39,0,0,1,.31.35h0v0a3.78,3.78,0,0,1,.22-.65s0,0,.07,0a.06.06,0,0,1,.05,0,.38.38,0,0,1,0,.07l0,.13a2.49,2.49,0,0,1,.05.35c0,.1,0,.17,0,.29h0a3,3,0,0,1,.22-.26l.11-.1c.05,0,.09-.08.14-.08l0,0a.06.06,0,0,1,0,0,.14.14,0,0,1,0,.07c0,.06-.13.34-.2.44a.55.55,0,0,0,0,.2h0a3.39,3.39,0,0,1,0,.4.32.32,0,0,1-.25.36h-.12c-.15,0-.18-.06-.35-.06h0a.76.76,0,0,0-.32.07A.41.41,0,0,1,48.77,19.68Z"/><path class="cls-1" d="M48.68,19.6a.34.34,0,0,1-.16,0l0-.09a.24.24,0,0,0,.11,0,.1.1,0,0,0,.09-.06.38.38,0,0,0,0-.17s0,0,0,0a1.74,1.74,0,0,0-.25-.77c-.1-.09-.15-.13-.16-.19a.07.07,0,0,1,0-.05h0a.87.87,0,0,1,.32.15l.15.12A1.31,1.31,0,0,1,48.8,18h.1a1.4,1.4,0,0,0,.21.6.17.17,0,0,1,0,.07,0,0,0,0,1,0,0l0,0s0,0-.08,0l-.08-.08-.18-.15-.17-.1.05,0a1.71,1.71,0,0,1,.29.84s0,0,0,.06a.44.44,0,0,1,0,.22.2.2,0,0,1-.17.1Z"/><path class="cls-1" d="M48.62,16.39l.07-.07a.12.12,0,0,0,.08,0,.08.08,0,0,0,.08-.07.1.1,0,0,0,0,0,.89.89,0,0,1-.19-.51,1,1,0,0,1,0-.29s0-.06.07-.07a.09.09,0,0,1,.07.05l0,.07,0,.13s.09.07.16.15a.45.45,0,0,1,.1-.21.65.65,0,0,0,.12-.26v0a.05.05,0,0,1,.05,0c.06,0,0,0,.05,0v0l0,.09a1.23,1.23,0,0,0,.06.15.62.62,0,0,1,.06.29.64.64,0,0,1,.14-.2l.06.07a1,1,0,0,0-.19.34l0,.07s0,0,0,0,0,0,0,0h0s0-.09,0-.13a.9.9,0,0,0,0-.34.79.79,0,0,1-.07-.15.76.76,0,0,1-.11.19.69.69,0,0,0-.09.33h0s0,0,0,0h0a.05.05,0,0,1,0,0c0-.16-.15-.18-.22-.31l0-.13a.83.83,0,0,0,0,.2.8.8,0,0,0,.18.47.19.19,0,0,1,0,.1.17.17,0,0,1-.18.17h0A.23.23,0,0,1,48.62,16.39Z"/><path class="cls-1" d="M48.53,15.15a1.05,1.05,0,0,0,0-.18c0-.36-.22-.4-.24-.4v-.1c.08,0,.34.1.34.5a1.12,1.12,0,0,1,0,.2Z"/><path class="cls-1" d="M47.72,16a3.53,3.53,0,0,1,.24-1.3h0l.09,0A3.4,3.4,0,0,0,47.82,16Z"/><path class="cls-1" d="M47.79,15.65c.16,0,.54-.41.65-.62l.08,0c-.13.22-.48.61-.72.66Z"/><path class="cls-1" d="M47.61,17.09V17c.24,0,.36.2.48.52l-.09,0C47.88,17.23,47.78,17.1,47.61,17.09Zm0,0h0Z"/><path class="cls-1" d="M47.24,18.1a.37.37,0,0,0,0-.15c0-.09,0-.21,0-.33a1,1,0,0,1,.07-.42h0l.09,0a.85.85,0,0,0-.06.38c0,.11,0,.23,0,.33a.43.43,0,0,1,0,.21Z"/><path class="cls-1" d="M47.29,17.8v-.1h0a.68.68,0,0,0,.26-.19,3.72,3.72,0,0,1,.33-.29l.06.08a3.39,3.39,0,0,0-.31.28c-.12.11-.22.21-.33.21Z"/><path class="cls-1" d="M48.8,16.92a.12.12,0,0,1,0-.07.89.89,0,0,1,.1-.31.13.13,0,0,0,0,0,.1.1,0,0,0,0,0l.09,0a.25.25,0,0,1,0,.06.18.18,0,0,1,0,.09.92.92,0,0,0-.09.27h0s0,0,0,0h0V17h0A.15.15,0,0,1,48.8,16.92Z"/><path class="cls-1" d="M49.8,17a.18.18,0,0,1-.1,0c-.07-.07-.06-.18-.07-.28a1,1,0,0,1,0-.11h0a.14.14,0,0,0,0-.07l.08-.06a.23.23,0,0,1,0,.12v0s0,.05,0,.1a.52.52,0,0,0,0,.19h.08l0,.09a.17.17,0,0,1-.08,0Z"/><path class="cls-1" d="M49,17a.18.18,0,0,1,0-.1.53.53,0,0,1,0-.08.54.54,0,0,1,.05-.23.25.25,0,0,0,0-.08h0l.09,0a.19.19,0,0,1,0,0,.3.3,0,0,1,0,.13.42.42,0,0,0,0,.18.35.35,0,0,0,0,.07v0h0V17A.13.13,0,0,1,49,17Z"/><path class="cls-1" d="M49.36,16.89a.62.62,0,0,1,0-.17.72.72,0,0,1,0-.24l.09,0a.63.63,0,0,0,0,.21.54.54,0,0,0,0,.15c0,.08,0,.07,0,.07V17C49.4,17,49.37,17,49.36,16.89Z"/><path class="cls-1" d="M49.53,16.91a.64.64,0,0,1,0-.24.78.78,0,0,1,0-.17l.09,0a.65.65,0,0,0,0,.15.52.52,0,0,0,0,.2c0,.07,0,.07,0,.07V17C49.59,17,49.55,17,49.53,16.91Z"/><path class="cls-1" d="M49.11,17.77a.58.58,0,0,1,0-.16.61.61,0,0,1,.06-.29.46.46,0,0,0,0-.2.26.26,0,0,0,0-.11.26.26,0,0,1,0-.13.53.53,0,0,1,0-.21,1,1,0,0,0,.06-.18h0l.09,0a.06.06,0,0,1,0,0,.75.75,0,0,1-.07.23.53.53,0,0,0,0,.16.18.18,0,0,0,0,.08.33.33,0,0,1,0,.16.49.49,0,0,1-.06.25.57.57,0,0,0,0,.24.29.29,0,0,0,0,.16h0s0,0,0-.12h.1a.21.21,0,0,1-.1.2h-.05A.12.12,0,0,1,49.11,17.77Z"/><path class="cls-1" d="M49.61,19.92a.91.91,0,0,1-.05-.3.42.42,0,0,1,0-.08l.1,0s0,0,0,.06a.83.83,0,0,0,0,.27c0,.09.08.13.12.13h0v.1h0C49.71,20.11,49.65,20,49.61,19.92Z"/><path class="cls-1" d="M49.8,19.83a.72.72,0,0,1,0-.25.35.35,0,0,1,0,0h.1v0a.63.63,0,0,0,0,.21c0,.07.07.11.09.11h0l0,.1h0C49.88,20,49.83,19.91,49.8,19.83Z"/><path class="cls-1" d="M48.75,20c.11,0,.15-.15.15-.28a.77.77,0,0,0,0-.15l.1,0a1.08,1.08,0,0,1,0,.17c0,.13,0,.33-.22.37Z"/><path class="cls-1" d="M49,20c.09,0,.14-.22.13-.38a1,1,0,0,0,0-.13h0l.1,0a1.18,1.18,0,0,1,0,.15c0,.16,0,.42-.21.48Z"/><path class="cls-1" d="M49.37,19.95a1.44,1.44,0,0,1,0-.34.93.93,0,0,1,0-.11l.08,0h0v0s0,0,0,.07a1.32,1.32,0,0,0,0,.31c0,.11.07.16.11.16v.1C49.45,20.17,49.4,20.06,49.37,19.95Z"/><path class="cls-1" d="M49.37,21.09a.22.22,0,0,1-.13-.05.65.65,0,0,1-.15-.49,2.32,2.32,0,0,1,.08-.58,2.85,2.85,0,0,0,0-.39s0,0,0-.06h0l.09,0a.34.34,0,0,1,0,.08,2.47,2.47,0,0,1,0,.42,2.3,2.3,0,0,0-.07.55.55.55,0,0,0,.12.41.11.11,0,0,0,.07,0s0,0,0,0a.44.44,0,0,0,0-.14l.09,0a.56.56,0,0,1,0,.17.15.15,0,0,1,0,.1.11.11,0,0,1-.08,0Zm-.18-1.57h0Z"/><path class="cls-1" d="M42,20.13c0,.15.2.29.48.31s.51-.08.52-.24-.2-.29-.48-.31S42,20,42,20.13Z"/><path class="cls-1" d="M41.13,19.71H39.74v.51h1.39Z"/><path class="cls-1" d="M43.93,20.27l.57.44.22-.32L44.61,20Z"/><path class="cls-1" d="M43.37,19.16a1,1,0,0,0,.11-.38.18.18,0,0,0-.11-.19h-.06c-.08,0-.16,0-.16.17a.38.38,0,0,0,0,.07l-.1,0a.54.54,0,0,1,0-.08.25.25,0,0,1,.09-.21.27.27,0,0,1,.17-.06l.1,0a.27.27,0,0,1,.17.28.84.84,0,0,1-.06.29.55.55,0,0,0,.31-.47.5.5,0,0,0-.14-.34.44.44,0,0,0-.31-.15.35.35,0,0,0-.3.19l0,0H43a0,0,0,0,1,0,0v0h0v0h0l0-.1a1.24,1.24,0,0,0,.06-.4,1.74,1.74,0,0,0-.19-.76,1.58,1.58,0,0,0-.4,1,.93.93,0,0,0,0,.22v0h0a0,0,0,0,1,0,0h0a0,0,0,0,1,0,0h0s0,0,0,0h0a.34.34,0,0,0-.33-.26.51.51,0,0,0-.48.48.61.61,0,0,0,.2.42,1.32,1.32,0,0,1,0-.14c0-.15,0-.35.25-.38h0a.26.26,0,0,1,.27.24.42.42,0,0,1,0,.16l-.09,0a.29.29,0,0,0,0-.12.16.16,0,0,0-.17-.15h0c-.13,0-.16.14-.17.29A1.1,1.1,0,0,0,42,19l0,.14L41.89,19a.78.78,0,0,1-.34-.6.6.6,0,0,1,.58-.58.4.4,0,0,1,.3.12v0a1.71,1.71,0,0,1,.47-1.12l0-.06,0,.07a1.87,1.87,0,0,1,.23.87,1.37,1.37,0,0,1,0,.34.41.41,0,0,1,.22-.06.59.59,0,0,1,.54.59.72.72,0,0,1-.49.62l-.14.06Z"/><path class="cls-1" d="M43.06,19.2h0l-.75-.09a.22.22,0,0,1-.2-.22v0a.22.22,0,0,1,.22-.19h0l.75.09a.22.22,0,0,1,.2.22v0h0a.22.22,0,0,1-.22.19Zm-.88-.31h0a.12.12,0,0,0,.11.12l.75.09h0a.12.12,0,0,0,.13-.1h0a.12.12,0,0,0-.11-.12l-.75-.09h0A.12.12,0,0,0,42.18,18.88Z"/><path class="cls-1" d="M44.78,17.81a3.22,3.22,0,0,0,.32-1.28,1.22,1.22,0,0,0-.46-1,1.3,1.3,0,0,0-.76-.27h0a2.14,2.14,0,0,0-1.14.37,2.84,2.84,0,0,1-1.44.41v-.15a2.72,2.72,0,0,0,1.37-.39,2.26,2.26,0,0,1,1.2-.39h0a1.45,1.45,0,0,1,.85.3,1.38,1.38,0,0,1,.51,1.14,3.37,3.37,0,0,1-.33,1.34Z"/><path class="cls-1" d="M45.3,18a4.29,4.29,0,0,0,.39-1.62,1.65,1.65,0,0,0-1.78-1.68h0a2.06,2.06,0,0,0-1.21.33,1.9,1.9,0,0,1-1.14.34v-.1a1.81,1.81,0,0,0,1.09-.32,2.15,2.15,0,0,1,1.26-.34h0a2.15,2.15,0,0,1,1.2.35,1.63,1.63,0,0,1,.68,1.42A4.38,4.38,0,0,1,45.39,18Zm-3.78-2.63h0Z"/><path class="cls-1" d="M40.52,12.67a2.79,2.79,0,0,1,.26-.54h-.67a2.78,2.78,0,0,1,.26.53l-.14,0a2.09,2.09,0,0,0-.19-.4l-.13-.21L39.84,12H41l-.08.11a3.13,3.13,0,0,0-.31.61Z"/><path class="cls-1" d="M39.73,14.16s.09-.14.2-.33a2.72,2.72,0,0,0,.26-.59l.14,0a4.2,4.2,0,0,1-.48,1Z"/><path class="cls-1" d="M40.55,13.26l.14,0a2.57,2.57,0,0,0,.26.6c.11.19.2.33.2.34l-.12.08A4.1,4.1,0,0,1,40.55,13.26Z"/><path class="cls-1" d="M39.46,12.36l.11.08a3.2,3.2,0,0,0,.62.32l0,.14a2.68,2.68,0,0,1-.54-.26v.67a2.62,2.62,0,0,1,.53-.26l0,.14a2.12,2.12,0,0,0-.4.19l-.21.13-.11.07Z"/><path class="cls-1" d="M41.32,13.49a3.24,3.24,0,0,0-.6-.31l0-.14a2.83,2.83,0,0,1,.52.26v-.67a3,3,0,0,1-.53.26l0-.14a2.33,2.33,0,0,0,.4-.19l.21-.13h0l.11-.07v1.21Z"/><path class="cls-1" d="M40.66,15.4a.74.74,0,1,0-.45,0l0,.14a.89.89,0,1,1,.53,0Z"/><path class="cls-1" d="M41.23,14.78H39.64v.15h1.59Z"/><path class="cls-1" d="M40.16,13.9v.51h-.5v.14h.65V13.9Z"/><path class="cls-1" d="M40.59,13.9v.65h.65v-.14h-.51V13.9Z"/><path class="cls-1" d="M39.83,17.65c-.15-.17-.29-.3-.29-.3h0l-.09-.08h2l-.09.08s-.14.13-.29.29a1.57,1.57,0,0,0-.33.5l-.09,0a2.44,2.44,0,0,1,.56-.75H39.69a2.3,2.3,0,0,1,.56.77l-.09,0A1.46,1.46,0,0,0,39.83,17.65Z"/><path class="cls-1" d="M41.35,19s-.12-.12-.27-.24a1,1,0,0,0-.41-.24v-.1a1,1,0,0,1,.48.26l.19.17V17.8l-.19.17a1,1,0,0,1-.48.26v-.1a1,1,0,0,0,.41-.24c.15-.12.27-.24.27-.24l.08-.09v1.57Z"/><path class="cls-1" d="M39.43,17.56l.08.08s.12.12.27.24a.93.93,0,0,0,.41.24v.1a1,1,0,0,1-.47-.26l-.2-.17v1.1l.2-.17a1,1,0,0,1,.47-.26v.1a1,1,0,0,0-.41.24c-.15.12-.27.24-.27.24l-.08.09Z"/><path class="cls-1" d="M40.79,17.31h0Zm-.1,0s0-.64.11-1.15A5.66,5.66,0,0,1,41.15,15v0h.55l0,.07a7.35,7.35,0,0,0-.41,1.12,7.27,7.27,0,0,0-.13,1.13H41a7.25,7.25,0,0,1,.14-1.15,6.72,6.72,0,0,1,.38-1.07h-.33a5.55,5.55,0,0,0-.32,1.09c-.07.5-.11,1.14-.11,1.14Z"/><path class="cls-1" d="M43.77,19.66a1,1,0,0,1-.84-.5l.09,0a.89.89,0,0,0,.76.44h0a.83.83,0,0,0,.81-.52l.09,0a.93.93,0,0,1-.91.59Z"/><path class="cls-1" d="M41.51,19.4a.9.9,0,0,1-.86-.83.58.58,0,0,1,0-.08h.1a.63.63,0,0,0,0,.06.81.81,0,0,0,.78.73h.11a.88.88,0,0,0,.66-.27l.07.06a1,1,0,0,1-.73.31Z"/><path class="cls-1" d="M44.58,20a5.72,5.72,0,0,1,.26-.81l.09,0a5.68,5.68,0,0,0-.25.79Z"/><path class="cls-1" d="M44.71,18.73a.25.25,0,0,0,0-.06,1.67,1.67,0,0,0-.18-.57c-.09-.19-.18-.36-.18-.36l-.06-.11,1.2.36,0,.05c-.1.23-.22.47-.33.71l-.09,0c.11-.22.22-.44.31-.65l-.87-.26a2.5,2.5,0,0,1,.32.87.31.31,0,0,1,0,.09h0Z"/><path class="cls-1" d="M44.21,17.92l.06.1s.08.15.19.31.25.33.33.35a.07.07,0,0,1,0,0l-.07,0v0h0c-.14,0-.27-.22-.38-.38l-.14-.22-.32,1.05A2,2,0,0,1,44.6,19h.08l.06.05a.09.09,0,0,1-.06,0H44.6a1.38,1.38,0,0,0-.46.13l-.28.14-.1.06ZM44.67,19h0Z"/><path class="cls-1" d="M42.49,20.49c-.28,0-.52-.14-.53-.34h0c0-.19.25-.29.52-.3h0c.28,0,.52.14.53.34h0c0,.19-.25.29-.52.3Zm-.43-.34s0,.11.12.15a.71.71,0,0,0,.32.09h0a.66.66,0,0,0,.3-.07c.07,0,.11-.09.11-.14h0a.19.19,0,0,0-.12-.15.69.69,0,0,0-.32-.09h0a.66.66,0,0,0-.3.06.19.19,0,0,0-.12.14Zm0,0h0Z"/><path class="cls-1" d="M39.68,19.65v.61h1.48v-.61Zm1.43.51v0Z"/><path class="cls-1" d="M43.84,20.25l.68.53.26-.39v0l-.13-.43Zm.2,0,.55-.21.09.31-.18.26Z"/><path class="cls-1" d="M44.54,19.62a1.11,1.11,0,0,1-.75.21h-.15a1.16,1.16,0,0,1-.89-.38l-.2.33-.12-.38a.91.91,0,0,1-.69.23,1.73,1.73,0,0,1-.33,0,1.25,1.25,0,0,1-.84-.47l-.15.5-.15-.5a1.25,1.25,0,0,1-.84.47,1.73,1.73,0,0,1-.34,0,.91.91,0,0,1-.69-.23l-.12.38-.2-.33a1.17,1.17,0,0,1-.89.38h-.15a1.12,1.12,0,0,1-.75-.21l-.07.29-.09,0,.13-.53.06.13c.06.13.35.25.72.25h.14c.46,0,.82-.24.84-.4l0-.13.21.34.13-.42.05.13c.05.15.31.27.65.27a1.72,1.72,0,0,0,.32,0c.45-.08.79-.32.81-.53l0-.21.15.52.15-.52,0,.21c0,.2.36.45.81.53a1.72,1.72,0,0,0,.32,0c.34,0,.6-.12.65-.27l0-.13.13.42.21-.34,0,.13c0,.16.38.37.83.4h.14c.37,0,.67-.12.73-.25l.06-.12.13.53-.09,0Z"/><path class="cls-1" d="M40.2,13.27a.38.38,0,0,1,.24-.67.39.39,0,0,1,.24.09.38.38,0,0,1-.48.58Zm.07-.44a.23.23,0,0,0-.05.15.22.22,0,0,0,.08.18l0,.06,0-.06a.24.24,0,0,0,.15.06.23.23,0,0,0,.23-.23.23.23,0,0,0-.08-.18.24.24,0,0,0-.15-.05A.23.23,0,0,0,40.26,12.83Z"/><path class="cls-1" d="M40.2,13.27a.38.38,0,0,1,.24-.67.39.39,0,0,1,.24.09.38.38,0,0,1-.48.58Zm.07-.44a.23.23,0,0,0-.05.15.22.22,0,0,0,.08.18l0,.06,0-.06a.24.24,0,0,0,.15.06.23.23,0,0,0,.23-.23.23.23,0,0,0-.08-.18.24.24,0,0,0-.15-.05A.23.23,0,0,0,40.26,12.83Z"/><path class="cls-1" d="M45.9,18.2a.45.45,0,0,1-.3-.11l0-.06,0-.06a.32.32,0,0,0,.2.07.32.32,0,0,0,.32-.32.32.32,0,0,0-.56-.2.31.31,0,0,0-.07.2.32.32,0,0,0,.11.24l0,.06,0,.06a.46.46,0,0,1-.16-.35.46.46,0,0,1,.76-.35.46.46,0,0,1-.3.82Z"/><path class="cls-1" d="M45.9,18.2a.45.45,0,0,1-.3-.11l0-.06,0-.06a.32.32,0,0,0,.2.07.32.32,0,0,0,.32-.32.32.32,0,0,0-.56-.2.31.31,0,0,0-.07.2.32.32,0,0,0,.11.24l0,.06,0,.06a.46.46,0,0,1-.16-.35.46.46,0,0,1,.76-.35.46.46,0,0,1-.3.82Z"/><path class="cls-1" d="M45.81,17.26h0a.47.47,0,0,1-.17-.36.45.45,0,0,1,.11-.3.46.46,0,0,1,.82.3.46.46,0,0,1-.76.36Zm.3,0a.31.31,0,0,0,.24-.11.32.32,0,0,0,.07-.2.32.32,0,0,0-.32-.32.32.32,0,0,0-.24.11.31.31,0,0,0,0,.44l0,.06,0-.06A.31.31,0,0,0,46.11,17.22Z"/><path class="cls-1" d="M45.81,17.26h0a.47.47,0,0,1-.17-.36.45.45,0,0,1,.11-.3.46.46,0,0,1,.82.3.46.46,0,0,1-.76.36Zm.3,0a.31.31,0,0,0,.24-.11.32.32,0,0,0,.07-.2.32.32,0,0,0-.32-.32.32.32,0,0,0-.24.11.31.31,0,0,0,0,.44l0,.06,0-.06A.31.31,0,0,0,46.11,17.22Z"/><path class="cls-1" d="M46.12,16.5a.45.45,0,0,1-.3-.11l0-.06,0-.05a.32.32,0,0,0,.2.07.31.31,0,0,0,.32-.31.32.32,0,0,0-.11-.24.33.33,0,0,0-.2-.07.32.32,0,0,0-.24.11.31.31,0,0,0-.07.2.31.31,0,0,0,.11.24l0,.05,0,.06a.46.46,0,1,1,.3.11Z"/><path class="cls-1" d="M46.12,16.5a.45.45,0,0,1-.3-.11l0-.06,0-.05a.32.32,0,0,0,.2.07.31.31,0,0,0,.32-.31.32.32,0,0,0-.11-.24.33.33,0,0,0-.2-.07.32.32,0,0,0-.24.11.31.31,0,0,0-.07.2.31.31,0,0,0,.11.24l0,.05,0,.06a.46.46,0,1,1,.3.11Z"/><path class="cls-1" d="M45.58,15.57a.46.46,0,0,1-.17-.35.46.46,0,0,1,.46-.46.47.47,0,0,1,.3.11.46.46,0,0,1,.16.35.46.46,0,0,1-.76.35Zm.3,0a.32.32,0,0,0,.32-.32.31.31,0,0,0-.11-.24.31.31,0,0,0-.2-.07.31.31,0,0,0-.24.11.31.31,0,0,0,0,.44l0,.06,0-.06A.31.31,0,0,0,45.87,15.53Z"/><path class="cls-1" d="M45.58,15.57a.46.46,0,0,1-.17-.35.46.46,0,0,1,.46-.46.47.47,0,0,1,.3.11.46.46,0,0,1,.16.35.46.46,0,0,1-.76.35Zm.3,0a.32.32,0,0,0,.32-.32.31.31,0,0,0-.11-.24.31.31,0,0,0-.2-.07.31.31,0,0,0-.24.11.31.31,0,0,0,0,.44l0,.06,0-.06A.31.31,0,0,0,45.87,15.53Z"/><path class="cls-1" d="M45.27,15.05a.45.45,0,0,1-.3-.11l0-.06,0-.06a.31.31,0,0,0,.2.07.32.32,0,0,0,.24-.11.32.32,0,0,0,.07-.2.31.31,0,0,0-.11-.24.32.32,0,0,0-.44,0,.31.31,0,0,0,0,.44l0,.06,0,.06a.46.46,0,0,1-.06-.65.46.46,0,1,1,.71.6A.45.45,0,0,1,45.27,15.05Z"/><path class="cls-1" d="M45.27,15.05a.45.45,0,0,1-.3-.11l0-.06,0-.06a.31.31,0,0,0,.2.07.32.32,0,0,0,.24-.11.32.32,0,0,0,.07-.2.31.31,0,0,0-.11-.24.32.32,0,0,0-.44,0,.31.31,0,0,0,0,.44l0,.06,0,.06a.46.46,0,0,1-.06-.65.46.46,0,1,1,.71.6A.45.45,0,0,1,45.27,15.05Z"/><path class="cls-1" d="M44.17,14.62a.46.46,0,0,1-.06-.65.46.46,0,0,1,.35-.17.46.46,0,0,1,.3.11.47.47,0,0,1,.17.35.47.47,0,0,1-.46.46h0A.46.46,0,0,1,44.17,14.62Zm.3,0a.31.31,0,0,0,.24-.11.32.32,0,0,0-.24-.52.32.32,0,0,0-.2.56l0,.06,0-.06A.32.32,0,0,0,44.47,14.58Z"/><path class="cls-1" d="M44.17,14.62a.46.46,0,0,1-.06-.65.46.46,0,0,1,.35-.17.46.46,0,0,1,.3.11.47.47,0,0,1,.17.35.47.47,0,0,1-.46.46h0A.46.46,0,0,1,44.17,14.62Zm.3,0a.31.31,0,0,0,.24-.11.32.32,0,0,0-.24-.52.32.32,0,0,0-.2.56l0,.06,0-.06A.32.32,0,0,0,44.47,14.58Z"/><path class="cls-1" d="M42.47,14.77h0a.46.46,0,0,1-.06-.65.47.47,0,0,1,.35-.17.48.48,0,0,1,.3.11.47.47,0,0,1,.16.35.47.47,0,0,1-.11.3.46.46,0,0,1-.35.16h0A.46.46,0,0,1,42.47,14.77Zm.3,0a.32.32,0,0,0,.32-.32.32.32,0,0,0-.32-.32.32.32,0,0,0-.24.11.31.31,0,0,0-.07.2.32.32,0,0,0,.11.24l0,.06,0-.06A.32.32,0,0,0,42.77,14.73Z"/><path class="cls-1" d="M42.47,14.77h0a.46.46,0,0,1-.06-.65.47.47,0,0,1,.35-.17.48.48,0,0,1,.3.11.47.47,0,0,1,.16.35.47.47,0,0,1-.11.3.46.46,0,0,1-.35.16h0A.46.46,0,0,1,42.47,14.77Zm.3,0a.32.32,0,0,0,.32-.32.32.32,0,0,0-.32-.32.32.32,0,0,0-.24.11.31.31,0,0,0-.07.2.32.32,0,0,0,.11.24l0,.06,0-.06A.32.32,0,0,0,42.77,14.73Z"/><path class="cls-1" d="M41.69,15.16h0a.46.46,0,0,1,.3-.81.47.47,0,0,1,.3.11.46.46,0,0,1,.16.36.46.46,0,0,1-.46.46A.46.46,0,0,1,41.69,15.16Zm.3,0a.32.32,0,0,0,.24-.11.31.31,0,0,0,0-.45.32.32,0,0,0-.44,0,.32.32,0,0,0-.07.2.31.31,0,0,0,.11.24l0,.06,0-.06A.32.32,0,0,0,42,15.12Z"/><path class="cls-1" d="M41.69,15.16h0a.46.46,0,0,1,.3-.81.47.47,0,0,1,.3.11.46.46,0,0,1,.16.36.46.46,0,0,1-.46.46A.46.46,0,0,1,41.69,15.16Zm.3,0a.32.32,0,0,0,.24-.11.31.31,0,0,0,0-.45.32.32,0,0,0-.44,0,.32.32,0,0,0-.07.2.31.31,0,0,0,.11.24l0,.06,0-.06A.32.32,0,0,0,42,15.12Z"/><path class="cls-1" d="M44.88,19.3a.28.28,0,0,1-.25-.31.41.41,0,0,1,0-.05.36.36,0,0,1,.31-.34h0a.28.28,0,0,1,.25.31.41.41,0,0,1,0,.05.35.35,0,0,1-.31.34ZM44.73,19a.25.25,0,0,0,0,0c0,.13.07.21.15.21h0c.09,0,.2-.11.21-.25a.26.26,0,0,0,0,0c0-.13-.07-.21-.16-.21h0c-.09,0-.2.1-.21.25h0Z"/><path class="cls-1" d="M44.88,19.3a.28.28,0,0,1-.25-.31.41.41,0,0,1,0-.05.36.36,0,0,1,.31-.34h0a.28.28,0,0,1,.25.31.41.41,0,0,1,0,.05.35.35,0,0,1-.31.34ZM44.73,19a.25.25,0,0,0,0,0c0,.13.07.21.15.21h0c.09,0,.2-.11.21-.25a.26.26,0,0,0,0,0c0-.13-.07-.21-.16-.21h0c-.09,0-.2.1-.21.25h0Z"/><path class="cls-1" d="M40.62,15.4l0,0a.25.25,0,0,0,.06-.16.25.25,0,0,0-.25-.25.26.26,0,0,0-.2.09.26.26,0,0,0,0,.35l-.07.07a.35.35,0,0,1-.1-.25.36.36,0,0,1,.35-.35.35.35,0,0,1,.23.08.35.35,0,0,1,.13.27.36.36,0,0,1-.08.23l0,0Z"/><path class="cls-1" d="M40.09,15.66a.35.35,0,0,1,.35-.35.35.35,0,0,1,.22.08.36.36,0,0,1,.13.27.35.35,0,0,1-.08.23l0,0-.07-.07v0a.26.26,0,0,0,0-.36.26.26,0,0,0-.16-.06.25.25,0,0,0-.2.09.25.25,0,0,0-.06.16.25.25,0,0,0,.08.18l-.07.07A.36.36,0,0,1,40.09,15.66Z"/><path class="cls-1" d="M40.63,16.28h0a.26.26,0,0,0,.06-.17.25.25,0,0,0-.45-.16.25.25,0,0,0,0,.34l-.07.07a.35.35,0,0,1,0-.47.36.36,0,0,1,.5,0,.36.36,0,0,1,.13.27.34.34,0,0,1-.08.23l0,0Z"/><path class="cls-1" d="M40.09,16.54a.35.35,0,1,1,.7,0,.34.34,0,0,1-.08.23l0,0-.07-.07v0a.25.25,0,0,0,.06-.16.26.26,0,0,0-.09-.2.25.25,0,0,0-.16-.06.25.25,0,0,0-.18.43l-.07.07A.35.35,0,0,1,40.09,16.54Z"/><path class="cls-1" d="M40.45,17.34a.35.35,0,0,1-.23-.08.36.36,0,0,1-.13-.27.35.35,0,1,1,.35.35Zm0-.1A.26.26,0,0,0,40.7,17a.25.25,0,0,0-.09-.2.27.27,0,0,0-.16-.06.26.26,0,0,0-.2.09.25.25,0,0,0-.06.17.26.26,0,0,0,.09.2l0,0,0,0A.26.26,0,0,0,40.45,17.24Z"/><path class="cls-1" d="M40.45,17.34a.35.35,0,0,1-.23-.08.36.36,0,0,1-.13-.27.35.35,0,1,1,.35.35Zm0-.1A.26.26,0,0,0,40.7,17a.25.25,0,0,0-.09-.2.27.27,0,0,0-.16-.06.26.26,0,0,0-.2.09.25.25,0,0,0-.06.17.26.26,0,0,0,.09.2l0,0,0,0A.26.26,0,0,0,40.45,17.24Z"/><path class="cls-1" d="M40.45,18.7a.35.35,0,1,1,.23-.62.36.36,0,0,1,.13.27.35.35,0,0,1-.35.35Zm0-.1a.25.25,0,0,0,.16-.45.25.25,0,0,0-.36,0,.25.25,0,0,0-.06.16.26.26,0,0,0,.09.2l0,0,0,0A.27.27,0,0,0,40.45,18.6Z"/><path class="cls-1" d="M40.45,18.7a.35.35,0,1,1,.23-.62.36.36,0,0,1,.13.27.35.35,0,0,1-.35.35Zm0-.1a.25.25,0,0,0,.16-.45.25.25,0,0,0-.36,0,.25.25,0,0,0-.06.16.26.26,0,0,0,.09.2l0,0,0,0A.27.27,0,0,0,40.45,18.6Z"/><path class="cls-1" d="M43.32,14.57l0-.06,0-.06a.32.32,0,0,0,.2.07.31.31,0,0,0,.24-.11.32.32,0,0,0,.07-.2.32.32,0,0,0-.11-.24.31.31,0,0,0-.44,0,.3.3,0,0,0-.07.2.32.32,0,0,0,.11.24l0,.06,0,.06a.46.46,0,0,1,.3-.82.47.47,0,0,1,.3.11.46.46,0,0,1,.06.65.47.47,0,0,1-.35.17h0A.47.47,0,0,1,43.32,14.57Z"/><path class="cls-1" d="M43.32,14.57l0-.06,0-.06a.32.32,0,0,0,.2.07.31.31,0,0,0,.24-.11.32.32,0,0,0,.07-.2.32.32,0,0,0-.11-.24.31.31,0,0,0-.44,0,.3.3,0,0,0-.07.2.32.32,0,0,0,.11.24l0,.06,0,.06a.46.46,0,0,1,.3-.82.47.47,0,0,1,.3.11.46.46,0,0,1,.06.65.47.47,0,0,1-.35.17h0A.47.47,0,0,1,43.32,14.57Z"/><path class="cls-1" d="M44.64,21.68a.82.82,0,0,0,0-.24.59.59,0,0,0-.1-.36c-.06,0-.08,0-.15-.06l-.08,0a.41.41,0,0,0-.19,0L44,21l-.09,0h0l-.08,0a.37.37,0,0,0-.17,0l-.12,0-.09,0h0l-.09,0a.37.37,0,0,0-.16,0l-.12,0-.08,0h0l-.07,0a.38.38,0,0,0-.16,0l-.13,0-.08,0h0l-.06,0a.38.38,0,0,0-.15,0l-.14,0-.09,0h0l-.07,0-.15,0-.16,0-.1,0a.05.05,0,0,1,0,0l0,0a.4.4,0,0,0-.15,0,.41.41,0,0,0-.15,0,.41.41,0,0,1-.1,0h0l-.06,0-.16,0a.39.39,0,0,0-.14,0s0,0-.09,0h0l-.09,0-.11,0a.4.4,0,0,0-.15,0,.37.37,0,0,1-.1,0h0l-.1,0h-.12a.53.53,0,0,0-.17,0l-.1,0h0l-.06,0h-.11a.45.45,0,0,0-.18,0s0,0-.09,0h0l-.09,0-.11,0a.38.38,0,0,0-.16,0s-.06,0-.1,0h0l-.09,0h-.1a.42.42,0,0,0-.17,0s-.06,0-.11,0h-.21a.45.45,0,0,0-.24.07.1.1,0,0,1-.06,0h0l-.08,0-.1,0a.52.52,0,0,0-.26.09L37,21h0l-.08,0-.1,0c-.08,0-.11,0-.19,0h-.21s-.1,0-.16.12a.56.56,0,0,0-.11.17.77.77,0,0,0,0,.18c0,.08,0,.13.12.22l-.07.07a.37.37,0,0,1-.16-.29.92.92,0,0,1,0-.2.63.63,0,0,1,.14-.22.38.38,0,0,1,.23-.15h.21a.61.61,0,0,1,.19,0l.13,0,.07,0h0l.07,0a.51.51,0,0,1,.24-.07l.13,0,.08,0h0l.06,0a.51.51,0,0,1,.22-.05H38l.1,0h0l.06,0a.51.51,0,0,1,.21,0h.12l.09,0h0l.06,0a.49.49,0,0,1,.19,0l.14,0,.09,0h0l.06,0a.52.52,0,0,1,.22,0h.13l.08,0h0l.06,0a.62.62,0,0,1,.2,0h.14l.11,0h0l.05,0a.51.51,0,0,1,.18,0l.14,0,.09,0h0l0,0a.47.47,0,0,1,.18,0,.61.61,0,0,1,.18,0l.08,0h0l.06,0a.52.52,0,0,1,.18,0,.53.53,0,0,1,.19,0l.06,0h0l.06,0a.68.68,0,0,1,.18,0,.52.52,0,0,1,.18,0l.07,0h0l.05,0a.56.56,0,0,1,.17,0,.47.47,0,0,1,.19,0l.06,0,0,0a.5.5,0,0,1,.16,0,.51.51,0,0,1,.19,0l.08.05,0,0,.15,0a.49.49,0,0,1,.2,0l.08,0h0l0,0a.46.46,0,0,1,.37,0l.07,0h0l0,0,.16,0a.5.5,0,0,1,.23.05l.1.06h0a.25.25,0,0,1,.12.06.64.64,0,0,1,.14.43.93.93,0,0,1,0,.27Z"/><path class="cls-1" d="M43.34,21.78a.87.87,0,0,1,.81-.1.78.78,0,0,0,.36,0,1.09,1.09,0,0,1,.76,0,1.14,1.14,0,0,1,.48.78,1.69,1.69,0,0,1,0,.28s-1.81-.14-1.81-.16-.19-.36-.21-.39a1.52,1.52,0,0,0-.32-.39Z"/><path class="cls-1" d="M39.92,21.68a1.07,1.07,0,0,1,.83,0,.67.67,0,0,0,.28,0,1,1,0,0,1,.77.11,1.2,1.2,0,0,1,.35.42l.19.33s-1.93,0-1.94-.05a1.67,1.67,0,0,1-.09-.24,1.2,1.2,0,0,0-.28-.45Z"/><path class="cls-1" d="M36.37,21.74a1,1,0,0,1,.86-.09.66.66,0,0,0,.23,0,.89.89,0,0,1,.68,0,1.07,1.07,0,0,1,.43.46s.16.3.18.32-1.88.09-1.88.08a2.85,2.85,0,0,0-.28-.57,1,1,0,0,0-.19-.21Z"/><path class="cls-1" d="M36.87,22.54s1.57-.1,1.88-.08a1.6,1.6,0,0,0,.45.47,1,1,0,0,1-.76.12.75.75,0,0,0-.53,0A.68.68,0,0,1,37.2,23a1.42,1.42,0,0,1-.28-.34A.65.65,0,0,0,36.87,22.54Z"/><path class="cls-1" d="M40.39,22.44s1.47,0,1.94.05a1.56,1.56,0,0,0,.4.46.87.87,0,0,1-.81.08.82.82,0,0,0-.51,0,.91.91,0,0,1-.79-.2,1.2,1.2,0,0,1-.2-.29Z"/><path class="cls-1" d="M43.92,22.59s1.19.08,1.82.16c0,0-.13.44-.49.39a1.29,1.29,0,0,0-.6,0,.47.47,0,0,1-.46-.11,1.25,1.25,0,0,1-.21-.28Z"/><path class="cls-1" d="M35.32,23a.77.77,0,0,1-.23-.55.9.9,0,0,1,.93-.89h0c.13,0,.54.08.81.82,0,0,.26.67.72.66a.73.73,0,0,0,.31-.08.4.4,0,0,1,.19,0,1.25,1.25,0,0,1,.34.06.76.76,0,0,0,.23,0,.91.91,0,0,0,.49-.13l.09.12a1,1,0,0,1-.58.16,1,1,0,0,1-.27,0,1,1,0,0,0-.29-.05.25.25,0,0,0-.13,0,.87.87,0,0,1-.37.09.72.72,0,0,1-.37-.11,1.06,1.06,0,0,1-.48.11,1.33,1.33,0,0,1-.29,0h-.06c-.13,0-.31.1-.54.1h0A.73.73,0,0,1,35.32,23ZM36,21.7a.75.75,0,0,0-.79.74.63.63,0,0,0,.18.45.58.58,0,0,0,.43.2c.18,0,.35-.09.54-.1h.09a1.15,1.15,0,0,0,.26,0,.94.94,0,0,0,.35-.06,1.48,1.48,0,0,1-.36-.55c-.27-.71-.6-.73-.67-.73Z"/><path class="cls-1" d="M39.13,23c-.51-.36-.53-.75-.76-1a.76.76,0,0,0-.6-.31,1.14,1.14,0,0,0-.26,0,1,1,0,0,1-.23,0h-.07a1.4,1.4,0,0,0-.33,0,.81.81,0,0,0-.47.13l-.08-.12a.94.94,0,0,1,.55-.15,1.6,1.6,0,0,1,.36,0h0l.19,0a1.27,1.27,0,0,1,.3,0,.91.91,0,0,1,.71.36c.27.32.26.65.73,1a.61.61,0,0,0,.31.08.68.68,0,0,0,.25,0l.16,0,.19,0,.23,0a.92.92,0,0,0,.38-.06l.07.13a1,1,0,0,1-.45.08,1,1,0,0,1-.27,0l-.14,0h-.1a.85.85,0,0,1-.31.06A.74.74,0,0,1,39.13,23Z"/><path class="cls-1" d="M41.87,23.11a.65.65,0,0,0-.26-.05c-.13,0-.26,0-.44,0h-.1c-.67-.06-.83-.81-.85-.86-.19-.51-.5-.58-.69-.58l-.14,0a.8.8,0,0,1-.21,0l-.13,0a.73.73,0,0,0-.3-.07.49.49,0,0,0-.22,0,.83.83,0,0,1-.32.1h-.08l0-.14h.06a.73.73,0,0,0,.26-.09.69.69,0,0,1,.28-.06.91.91,0,0,1,.35.08h.07a.66.66,0,0,0,.18,0,.86.86,0,0,1,.18,0,.88.88,0,0,1,.83.68c0,.09.18.73.72.77h.09c.16,0,.29,0,.44,0a.82.82,0,0,1,.31.06,1.05,1.05,0,0,0,.34.05.66.66,0,0,0,.41-.12l.09.11a.8.8,0,0,1-.5.16A1.25,1.25,0,0,1,41.87,23.11Z"/><path class="cls-1" d="M43.63,23.16a.69.69,0,0,0-.27,0h-.28a.87.87,0,0,1-.71-.43c-.17-.23-.28-.5-.41-.68a.78.78,0,0,0-.67-.36.88.88,0,0,0-.21,0,1,1,0,0,1-.24,0l-.15,0a1.19,1.19,0,0,0-.33,0,.87.87,0,0,0-.41.09l-.07-.13a1,1,0,0,1,.48-.11,1.31,1.31,0,0,1,.37.06h.11l.21,0a1,1,0,0,1,.25,0,.94.94,0,0,1,.79.42c.14.2.25.47.41.69a.72.72,0,0,0,.59.37h.08l.21,0a.82.82,0,0,1,.33.06.79.79,0,0,0,.28,0,.53.53,0,0,0,.29-.07l.08.12a.68.68,0,0,1-.37.09A1,1,0,0,1,43.63,23.16Z"/><path class="cls-1" d="M45.2,23.2a1,1,0,0,0-.29,0c-.16,0-.29,0-.41,0h0c-.31,0-.47-.28-.62-.56a2.5,2.5,0,0,0-.51-.77.39.39,0,0,0-.27-.09c-.11,0-.23,0-.35,0a.39.39,0,0,1-.15,0,1.08,1.08,0,0,0-.42-.09.56.56,0,0,0-.33.09h0l-.09-.09a.67.67,0,0,1,.44-.14,1.26,1.26,0,0,1,.47.1l.1,0c.09,0,.22,0,.35,0a.54.54,0,0,1,.26.06.92.92,0,0,1,.51-.14.93.93,0,0,1,.24,0,1.11,1.11,0,0,0,.31.05l.13,0a1.64,1.64,0,0,1,.42-.06.65.65,0,0,1,.48.17,1.11,1.11,0,0,1,.41.82.61.61,0,0,1-.52.67Zm0-.14h.07a.33.33,0,0,0,.26-.14.62.62,0,0,0,.12-.38,1,1,0,0,0-.36-.71A.49.49,0,0,0,45,21.7a1.52,1.52,0,0,0-.39.06.57.57,0,0,1-.16,0,1.23,1.23,0,0,1-.35-.06.89.89,0,0,0-.2,0,.82.82,0,0,0-.38.08,2.82,2.82,0,0,1,.52.79c.15.28.28.47.5.48h0c.08,0,.22,0,.41,0A1.26,1.26,0,0,1,45.24,23.06Z"/><path class="cls-1" d="M35.41,22.08a.74.74,0,0,0,.43.9,1.59,1.59,0,0,1-.05-.72,1.14,1.14,0,0,0,1,.51.52.52,0,0,1-.21-.31,1.72,1.72,0,0,0-.59-.76,1,1,0,0,1,.26.5.9.9,0,0,0,.08.22,1.49,1.49,0,0,1-.57-.37,1.49,1.49,0,0,0,0,.56.77.77,0,0,1-.26-.47A.26.26,0,0,1,35.41,22.08Z"/><path class="cls-1" d="M38.57,21.82c.35.09.53.48.72.6a1.43,1.43,0,0,1-.18-.6,4.66,4.66,0,0,1,.54.38s.27.24.31.21a1.92,1.92,0,0,0-.42-.65s.24,0,.7.76a1.17,1.17,0,0,0,.17.23,1.49,1.49,0,0,1-1.1-.62,1.81,1.81,0,0,0,.41.65s-.46,0-.84-.58a1.43,1.43,0,0,0-.26-.34Z"/><path class="cls-1" d="M42.13,21.86c.34.11.5.5.7.7a.75.75,0,0,1-.09-.64,3.25,3.25,0,0,0,.37.43s.31.25.36.22a1.65,1.65,0,0,0-.34-.68s.24,0,.63.76a1.5,1.5,0,0,0,.21.25s-.49.12-1.1-.69a1.38,1.38,0,0,0,.33.66s-.46,0-.78-.62a1.45,1.45,0,0,0-.23-.36Z"/><path class="cls-1" d="M39.8,21.18c.32,0,.34.19.77.19.23,0,.4-.07.34-.07a.87.87,0,0,1-.61-.09s.39,0,.59,0c-.2,0-.61,0-.59,0a.87.87,0,0,1,.61-.09c.06,0-.11-.07-.34-.07-.43,0-.45.16-.77.19Z"/><path class="cls-1" d="M41.54,21.18c.32,0,.33.21.76.24.23,0,.4,0,.34,0a.86.86,0,0,1-.6-.13s.39,0,.59,0c-.2,0-.6-.07-.59-.08a.87.87,0,0,1,.62,0c.06,0-.11-.08-.33-.1-.43,0-.46.13-.78.14Z"/><path class="cls-1" d="M43.15,21.25c.32.06.32.21.75.26.23,0,.4,0,.35,0a.85.85,0,0,1-.6-.15s.39,0,.59,0c-.2-.05-.6-.08-.58-.09a.86.86,0,0,1,.61,0c.06,0-.1-.08-.33-.1-.43,0-.46.13-.78.12Z"/><path class="cls-1" d="M38.13,21.24c.32,0,.35.16.78.14.23,0,.39-.1.33-.1a.86.86,0,0,1-.61-.05s.39,0,.59-.08c-.2,0-.6,0-.59,0a.87.87,0,0,1,.6-.14c.06,0-.12-.07-.34,0-.43,0-.44.2-.76.25Z"/><path class="cls-1" d="M36.55,21.34c.32,0,.35.16.78.12.23,0,.39-.1.33-.1a.88.88,0,0,1-.62,0s.39,0,.58-.09c-.2,0-.6,0-.59,0a.87.87,0,0,1,.6-.15c.05,0-.12-.06-.35,0-.43,0-.43.2-.75.26Z"/><path class="cls-1" d="M35.9,19.27l.14-.05a6.38,6.38,0,0,1,.28.89l-.14,0A6.14,6.14,0,0,0,35.9,19.27Z"/><path class="cls-1" d="M35.33,18l.13-.06.35.76-.13.06Zm0,0h0Z"/><path class="cls-1" d="M35.32,17.95c.08-.06.07-.19.14-.11s-.09.19-.14.17S35.31,18,35.32,17.95Z"/><path class="cls-1" d="M45.55,17.95c-.08-.06-.07-.19-.14-.11s.09.19.14.17S45.56,18,45.55,17.95Z"/><path class="cls-1" d="M36,19.3a.35.35,0,0,1-.31-.34.41.41,0,0,1,0-.05.28.28,0,0,1,.24-.31h0a.36.36,0,0,1,.31.34h0s0,0,0,.05a.28.28,0,0,1-.25.31Zm-.06-.6c-.08,0-.15.08-.15.21a.22.22,0,0,0,0,0c0,.15.12.25.22.25h0c.08,0,.15-.08.15-.21a.25.25,0,0,0,0,0c0-.15-.12-.26-.21-.25h0Z"/><path class="cls-1" d="M35.63,19a.62.62,0,0,1,0-.14.31.31,0,0,1,.13-.26l.09.12a.16.16,0,0,0-.07.14.43.43,0,0,0,0,.1c0,.14.13.23.21.23h0v.15h0A.4.4,0,0,1,35.63,19Z"/><path class="cls-1" d="M44.32,21c0-.07,0-.31,0-.38l.15,0c0,.06,0,.31,0,.37Z"/><path class="cls-1" d="M44.54,20.11a6.44,6.44,0,0,1,.28-.88l.14.05a6.2,6.2,0,0,0-.27.86Z"/><path class="cls-1" d="M45,18.7l.35-.75.13.06c-.1.24-.23.49-.35.75Z"/><path class="cls-1" d="M44.89,19.37v-.15h0c.08,0,.17-.09.21-.23a.5.5,0,0,0,0-.1.16.16,0,0,0-.07-.14l.09-.12a.31.31,0,0,1,.13.26.68.68,0,0,1,0,.14.4.4,0,0,1-.35.34Zm.15-.62h0Z"/><path class="cls-1" d="M44.88,19.3a.28.28,0,0,1-.25-.31.41.41,0,0,1,0-.05.36.36,0,0,1,.31-.34h0a.28.28,0,0,1,.25.31.41.41,0,0,1,0,.05.35.35,0,0,1-.31.34ZM44.73,19a.25.25,0,0,0,0,0c0,.13.07.21.15.21h0c.09,0,.2-.11.21-.25a.26.26,0,0,0,0,0c0-.13-.07-.21-.16-.21h0c-.09,0-.2.1-.21.25h0Z"/><path class="cls-1" d="M41.2,16.5h0Zm-.06-.07a1.56,1.56,0,0,1,1-.38l.27,0,.62.11,0,0a2.4,2.4,0,0,1,1.18-.32,1.83,1.83,0,0,1,.39,0,1.68,1.68,0,0,1,.33.13c.12.07.24.13.26.24l-.1,0s-.1-.11-.21-.17a1.51,1.51,0,0,0-.31-.12,1.69,1.69,0,0,0-.37,0,2.31,2.31,0,0,0-1.12.31l0,0-.06,0c-.06,0-.18,0-.64-.12l-.25,0a1.48,1.48,0,0,0-.94.36Z"/><path class="cls-1" d="M38.72,16.14l-.25,0c-.46.08-.57.11-.64.12l-.06,0,0,0a2.32,2.32,0,0,0-1.12-.3,1.62,1.62,0,0,0-.37,0,1.51,1.51,0,0,0-.31.12c-.12.06-.22.14-.22.17l-.1,0c0-.1.14-.17.27-.23a1.67,1.67,0,0,1,.33-.13,1.75,1.75,0,0,1,.39,0,2.39,2.39,0,0,1,1.18.32l0,0h0l.62-.11.26,0a1.57,1.57,0,0,1,1,.38l-.06.07A1.47,1.47,0,0,0,38.72,16.14Zm-.88,0h0Z"/></g></g></svg>