<svg width="24" height="24" viewBox="0 0 24 24" fill="none" xmlns="http://www.w3.org/2000/svg">
<path fill-rule="evenodd" clip-rule="evenodd" d="M18.7376 17.9145L18.8246 17.2355C18.8356 17.1504 18.8415 17.103 18.8455 17.0602C18.8492 17.0218 18.8494 17.0049 18.8494 17C18.8494 16.9095 18.8437 16.8842 18.8444 16.8879L18.6779 16.0225L18.1414 15.6203C17.9904 15.5071 17.8676 15.4408 17.7628 15.4013L16.955 15.0966L16.3017 15.3725C16.1063 15.4549 15.9588 15.5395 15.851 15.6203L15.2574 16.0653L15.1677 16.7645C15.1582 16.8382 15.1532 16.9131 15.1532 17C15.1532 17.0869 15.1582 17.1618 15.1677 17.2355L15.2574 17.9347L15.851 18.3797C16.0019 18.4929 16.1248 18.5592 16.2295 18.5987L17.0427 18.9055L17.701 18.6275C17.9005 18.5433 18.0322 18.4644 18.1113 18.4027L18.7376 17.9145ZM20.6237 20.48L19.341 19.98C19.0844 20.18 18.7868 20.34 18.479 20.47L18.284 21.79C18.2635 21.91 18.1506 22 18.0275 22H15.9751C15.8417 22 15.7391 21.91 15.7186 21.79L15.5236 20.47C15.2055 20.35 14.9182 20.18 14.6514 19.98L13.3789 20.48C13.2558 20.52 13.1224 20.48 13.0608 20.37L12.0346 18.64C11.9731 18.53 12.0038 18.4 12.0962 18.32L13.1839 17.49C13.1634 17.33 13.1532 17.17 13.1532 17C13.1532 16.83 13.1634 16.67 13.1839 16.51L12.0962 15.68C11.9936 15.6 11.9731 15.47 12.0346 15.36L13.0608 13.63C13.1326 13.52 13.266 13.48 13.3789 13.52L14.6514 14.02C14.9182 13.82 15.2158 13.66 15.5236 13.53L15.7186 12.21C15.7391 12.09 15.852 12 15.9751 12H18.0275C18.1506 12 18.2635 12.09 18.2738 12.21L18.4687 13.53C18.7868 13.65 19.0742 13.82 19.341 14.02L20.6134 13.52C20.7366 13.48 20.87 13.52 20.9315 13.63L21.9577 15.36C22.0193 15.47 21.9885 15.6 21.8961 15.68L20.8084 16.51C20.8392 16.67 20.8494 16.83 20.8494 17C20.8494 17.17 20.8289 17.33 20.8084 17.49L21.9064 18.32C21.9988 18.4 22.0295 18.53 21.968 18.64L20.9418 20.37C20.87 20.48 20.7366 20.52 20.6237 20.48ZM16.2952 12.5022L16.2958 12.5063L16.2952 12.5022Z" fill="#738699"/>
<path fill-rule="evenodd" clip-rule="evenodd" d="M15 8C15 10.21 13.21 12 11 12C8.79 12 7 10.21 7 8C7 5.79 8.79 4 11 4C13.21 4 15 5.79 15 8ZM13 8C13 6.9 12.1 6 11 6C9.9 6 9 6.9 9 8C9 9.1 9.9 10 11 10C12.1 10 13 9.1 13 8Z" fill="#738699"/>
<path d="M10.5956 16.06C10.4328 15.5878 10.4824 15.0621 10.7257 14.6274L10.7349 14.6109L11.097 14.0006C11.0643 14.0002 11.0319 14 11 14C8.33 14 3 15.34 3 18V20H11.0973L10.7349 19.3891L10.7257 19.3726C10.4705 18.9166 10.4474 18.4277 10.5822 18H5C5.2 17.37 7.57 16.32 9.96 16.06H10.5956Z" fill="#738699"/>
</svg>
